<svg width="24" height="24" viewBox="0 0 24 24" fill="none" xmlns="http://www.w3.org/2000/svg">
<g clip-path="url(#clip0_372_1633)">
<path d="M15.9991 4.42182H15.456V3.45458C15.456 2.90278 15.0071 2.45386 14.4553 2.45386H9.54409C8.99228 2.45386 8.54336 2.90278 8.54336 3.45458V4.42183H8.00024C7.44844 4.42183 6.99951 4.87075 6.99951 5.42255V20.5454C6.99951 21.0972 7.44844 21.5461 8.00024 21.5461H15.9992C16.551 21.5461 16.9999 21.0972 16.9999 20.5454V5.42255C16.9999 4.87075 16.5509 4.42182 15.9991 4.42182ZM9.27413 3.45458C9.27413 3.30573 9.39523 3.18463 9.54408 3.18463H14.4553C14.6041 3.18463 14.7252 3.30573 14.7252 3.45458V4.42183H9.27412L9.27413 3.45458ZM16.2691 20.5454C16.2691 20.6943 16.148 20.8154 15.9991 20.8154H8.00023C7.85138 20.8154 7.73028 20.6943 7.73028 20.5454V5.42255C7.73028 5.2737 7.85138 5.1526 8.00023 5.1526H8.54335H15.456H15.9991C16.148 5.1526 16.2691 5.2737 16.2691 5.42255V20.5454H16.2691Z" fill="currentColor"/>
<path d="M15.0665 11.8911H12.2684L13.2926 6.82544L8.93408 14.1135H11.5304L10.5568 19.3904L15.0665 11.8911Z" fill="currentColor"/>
</g>
<defs>
<clipPath id="clip0_372_1633">
<rect width="24" height="24" fill="white"/>
</clipPath>
</defs>
</svg>
