<?xml version="1.0" encoding="utf-8" ?>
<svg baseProfile="full" height="1170" version="1.1" viewBox="0 0 1539 1170" width="1539" xmlns="http://www.w3.org/2000/svg" xmlns:ev="http://www.w3.org/2001/xml-events" xmlns:xlink="http://www.w3.org/1999/xlink"><defs /><path d="M 233 795 L 236 799 L 236 804 L 239 808 L 239 810 L 242 814 L 243 818 L 245 820 L 245 825 L 248 829 L 248 831 L 251 835 L 251 837 L 254 841 L 254 843 L 257 847 L 257 849 L 260 853 L 260 855 L 263 859 L 264 863 L 269 868 L 269 870 L 272 874 L 272 876 L 275 880 L 276 884 L 281 889 L 282 893 L 287 898 L 287 900 L 290 904 L 291 908 L 299 916 L 300 920 L 305 925 L 306 929 L 314 937 L 315 941 L 323 949 L 324 953 L 338 967 L 339 971 L 393 1025 L 397 1026 L 411 1040 L 415 1041 L 426 1052 L 430 1053 L 435 1058 L 439 1059 L 447 1067 L 451 1068 L 456 1073 L 460 1074 L 465 1079 L 469 1080 L 473 1083 L 475 1083 L 480 1088 L 484 1089 L 488 1092 L 490 1092 L 495 1097 L 499 1098 L 501 1100 L 505 1101 L 507 1103 L 511 1104 L 513 1106 L 517 1107 L 519 1109 L 523 1110 L 525 1112 L 529 1113 L 531 1115 L 535 1116 L 539 1119 L 544 1119 L 546 1121 L 550 1122 L 552 1124 L 556 1125 L 560 1128 L 565 1128 L 567 1130 L 571 1131 L 575 1134 L 580 1134 L 584 1137 L 589 1137 L 593 1140 L 598 1140 L 602 1143 L 607 1143 L 611 1146 L 616 1146 L 620 1149 L 628 1149 L 632 1152 L 640 1152 L 644 1155 L 652 1155 L 656 1158 L 667 1158 L 671 1161 L 682 1161 L 686 1164 L 703 1164 L 707 1167 L 727 1167 L 728 1169 L 837 1169 L 838 1167 L 861 1167 L 865 1164 L 882 1164 L 886 1161 L 897 1161 L 901 1158 L 909 1158 L 913 1155 L 924 1155 L 928 1152 L 933 1152 L 937 1149 L 945 1149 L 949 1146 L 954 1146 L 958 1143 L 963 1143 L 967 1140 L 972 1140 L 976 1137 L 981 1137 L 985 1134 L 990 1134 L 994 1131 L 998 1130 L 1000 1128 L 1005 1128 L 1009 1125 L 1011 1125 L 1015 1122 L 1017 1122 L 1021 1119 L 1025 1118 L 1027 1116 L 1032 1116 L 1036 1113 L 1038 1113 L 1042 1110 L 1046 1109 L 1051 1104 L 1053 1104 L 1057 1101 L 1059 1101 L 1063 1098 L 1065 1098 L 1069 1095 L 1073 1094 L 1078 1089 L 1080 1089 L 1084 1086 L 1088 1085 L 1093 1080 L 1097 1079 L 1102 1074 L 1106 1073 L 1111 1068 L 1115 1067 L 1120 1062 L 1124 1061 L 1132 1053 L 1136 1052 L 1147 1041 L 1151 1040 L 1168 1023 L 1172 1022 L 1214 980 L 1215 976 L 1232 959 L 1233 955 L 1241 947 L 1242 943 L 1250 935 L 1251 931 L 1259 923 L 1260 919 L 1265 914 L 1266 910 L 1271 905 L 1272 901 L 1275 897 L 1275 895 L 1280 890 L 1281 886 L 1286 881 L 1287 877 L 1289 875 L 1290 871 L 1292 869 L 1293 865 L 1295 863 L 1296 859 L 1298 857 L 1299 853 L 1301 851 L 1302 847 L 1304 845 L 1305 841 L 1307 839 L 1308 835 L 1310 833 L 1311 829 L 1313 827 L 1314 823 L 1316 821 L 1317 817 L 1320 813 L 1320 808 L 1322 806 L 1323 802 L 1326 798 L 1326 793 L 1329 789 L 1329 784 L 1331 782 L 1332 778 L 1335 774 L 1335 769 L 1338 765 L 1338 757 L 1341 753 L 1341 748 L 1340 747 L 1338 747 L 1336 749 L 1327 749 L 1323 746 L 1318 746 L 1316 748 L 1316 757 L 1313 761 L 1313 766 L 1310 770 L 1310 778 L 1307 782 L 1307 787 L 1304 791 L 1304 796 L 1301 800 L 1301 805 L 1298 809 L 1298 814 L 1296 816 L 1295 820 L 1292 824 L 1292 829 L 1290 831 L 1289 835 L 1287 837 L 1286 841 L 1283 845 L 1283 850 L 1281 852 L 1280 856 L 1278 858 L 1277 862 L 1275 864 L 1274 868 L 1272 870 L 1271 874 L 1269 876 L 1268 880 L 1265 884 L 1265 886 L 1260 891 L 1259 895 L 1256 899 L 1256 901 L 1251 906 L 1250 910 L 1247 914 L 1247 916 L 1242 921 L 1241 925 L 1236 930 L 1235 934 L 1227 942 L 1226 946 L 1218 954 L 1217 958 L 1206 969 L 1205 973 L 1182 996 L 1181 1000 L 1171 1010 L 1167 1011 L 1144 1034 L 1140 1035 L 1129 1046 L 1125 1047 L 1120 1052 L 1116 1053 L 1108 1061 L 1104 1062 L 1099 1067 L 1095 1068 L 1090 1073 L 1086 1074 L 1081 1079 L 1079 1079 L 1075 1082 L 1071 1083 L 1066 1088 L 1064 1088 L 1060 1091 L 1058 1091 L 1054 1094 L 1052 1094 L 1048 1097 L 1046 1097 L 1042 1100 L 1040 1100 L 1036 1103 L 1034 1103 L 1030 1106 L 1028 1106 L 1024 1109 L 1022 1109 L 1018 1112 L 1014 1113 L 1012 1115 L 1007 1115 L 1003 1118 L 1001 1118 L 997 1121 L 993 1122 L 991 1124 L 986 1124 L 982 1127 L 976 1127 L 973 1130 L 967 1130 L 964 1133 L 959 1133 L 955 1136 L 950 1136 L 946 1139 L 941 1139 L 937 1142 L 929 1142 L 925 1145 L 917 1145 L 913 1148 L 905 1148 L 901 1151 L 886 1151 L 885 1150 L 888 1148 L 890 1149 L 894 1149 L 898 1146 L 906 1146 L 910 1143 L 918 1143 L 922 1140 L 927 1140 L 931 1137 L 936 1137 L 940 1134 L 945 1134 L 949 1131 L 954 1131 L 958 1128 L 962 1127 L 964 1125 L 970 1125 L 973 1122 L 975 1122 L 979 1119 L 984 1119 L 988 1116 L 990 1116 L 994 1113 L 996 1113 L 1000 1110 L 1002 1110 L 1006 1107 L 1008 1107 L 1012 1104 L 1014 1104 L 1018 1101 L 1020 1101 L 1024 1098 L 1026 1098 L 1030 1095 L 1032 1095 L 1036 1092 L 1038 1092 L 1042 1089 L 1046 1088 L 1051 1083 L 1055 1082 L 1060 1077 L 1062 1077 L 1066 1074 L 1070 1073 L 1075 1068 L 1079 1067 L 1087 1059 L 1091 1058 L 1096 1053 L 1100 1052 L 1111 1041 L 1115 1040 L 1132 1023 L 1136 1022 L 1178 980 L 1179 976 L 1196 959 L 1197 955 L 1205 947 L 1206 943 L 1214 935 L 1215 931 L 1223 923 L 1224 919 L 1229 914 L 1230 910 L 1233 906 L 1233 904 L 1238 899 L 1239 895 L 1244 890 L 1245 886 L 1247 884 L 1248 880 L 1250 878 L 1251 874 L 1253 872 L 1254 868 L 1257 864 L 1257 862 L 1262 857 L 1263 855 L 1263 850 L 1265 848 L 1266 844 L 1268 842 L 1269 838 L 1271 836 L 1272 832 L 1274 830 L 1275 826 L 1278 822 L 1278 817 L 1280 815 L 1281 811 L 1284 807 L 1284 802 L 1287 798 L 1287 793 L 1289 791 L 1290 787 L 1293 783 L 1293 775 L 1296 771 L 1296 766 L 1299 762 L 1299 757 L 1302 753 L 1302 745 L 1304 743 L 1304 741 L 1291 728 L 1288 728 L 1276 740 L 1272 741 L 1267 746 L 1265 746 L 1261 749 L 1257 750 L 1256 754 L 1253 758 L 1253 766 L 1250 770 L 1250 775 L 1247 779 L 1247 784 L 1245 786 L 1244 790 L 1241 794 L 1241 799 L 1239 801 L 1238 805 L 1235 809 L 1235 814 L 1233 816 L 1232 820 L 1230 822 L 1229 826 L 1227 828 L 1226 832 L 1224 834 L 1223 838 L 1221 840 L 1220 844 L 1218 846 L 1217 850 L 1215 852 L 1214 856 L 1212 858 L 1211 862 L 1208 866 L 1208 868 L 1203 873 L 1202 877 L 1199 881 L 1199 883 L 1194 888 L 1193 892 L 1188 897 L 1187 901 L 1179 909 L 1178 913 L 1170 921 L 1169 925 L 1158 936 L 1157 940 L 1102 995 L 1098 996 L 1084 1010 L 1080 1011 L 1072 1019 L 1068 1020 L 1063 1025 L 1059 1026 L 1054 1031 L 1050 1032 L 1045 1037 L 1043 1037 L 1039 1040 L 1035 1041 L 1030 1046 L 1028 1046 L 1024 1049 L 1022 1049 L 1018 1052 L 1016 1052 L 1012 1055 L 1010 1055 L 1006 1058 L 1004 1058 L 1000 1061 L 998 1061 L 994 1064 L 992 1064 L 988 1067 L 986 1067 L 982 1070 L 978 1071 L 976 1073 L 971 1073 L 967 1076 L 962 1076 L 958 1079 L 954 1080 L 952 1082 L 947 1082 L 943 1085 L 938 1085 L 934 1088 L 929 1088 L 925 1091 L 917 1091 L 913 1094 L 905 1094 L 901 1097 L 893 1097 L 889 1100 L 875 1100 L 871 1103 L 857 1103 L 853 1106 L 830 1106 L 826 1109 L 761 1109 L 759 1110 L 756 1108 L 759 1106 L 761 1107 L 813 1107 L 817 1104 L 837 1104 L 841 1101 L 855 1101 L 859 1098 L 870 1098 L 874 1095 L 882 1095 L 886 1092 L 894 1092 L 898 1089 L 906 1089 L 910 1086 L 915 1086 L 919 1083 L 924 1083 L 928 1080 L 933 1080 L 937 1077 L 941 1076 L 943 1074 L 948 1074 L 952 1071 L 956 1070 L 958 1068 L 963 1068 L 967 1065 L 969 1065 L 973 1062 L 975 1062 L 979 1059 L 981 1059 L 985 1056 L 987 1056 L 991 1053 L 993 1053 L 997 1050 L 999 1050 L 1003 1047 L 1005 1047 L 1009 1044 L 1013 1043 L 1018 1038 L 1020 1038 L 1024 1035 L 1028 1034 L 1033 1029 L 1037 1028 L 1042 1023 L 1046 1022 L 1051 1017 L 1055 1016 L 1063 1008 L 1067 1007 L 1078 996 L 1082 995 L 1099 978 L 1103 977 L 1130 950 L 1131 946 L 1151 926 L 1152 922 L 1160 914 L 1161 910 L 1169 902 L 1170 898 L 1175 893 L 1176 889 L 1181 884 L 1182 880 L 1187 875 L 1188 871 L 1193 866 L 1194 862 L 1196 860 L 1197 856 L 1200 852 L 1200 850 L 1205 845 L 1206 841 L 1208 839 L 1209 835 L 1211 833 L 1212 829 L 1214 827 L 1215 823 L 1217 821 L 1218 817 L 1221 813 L 1221 808 L 1223 806 L 1224 802 L 1226 800 L 1227 796 L 1230 792 L 1230 787 L 1233 783 L 1233 778 L 1235 776 L 1236 772 L 1239 768 L 1239 763 L 1242 760 L 1242 757 L 1240 755 L 1222 755 L 1218 752 L 1213 752 L 1210 749 L 1207 749 L 1203 753 L 1202 755 L 1202 760 L 1199 764 L 1199 769 L 1197 771 L 1196 775 L 1193 779 L 1193 784 L 1191 786 L 1190 790 L 1187 794 L 1187 799 L 1185 801 L 1184 805 L 1182 807 L 1181 811 L 1179 813 L 1178 817 L 1176 819 L 1175 823 L 1173 825 L 1172 829 L 1169 833 L 1169 835 L 1164 840 L 1163 844 L 1160 848 L 1160 850 L 1155 855 L 1154 859 L 1149 864 L 1148 868 L 1143 873 L 1142 877 L 1134 885 L 1133 889 L 1125 897 L 1124 901 L 1095 930 L 1094 934 L 1089 936 L 1063 962 L 1059 963 L 1051 971 L 1047 972 L 1039 980 L 1035 981 L 1030 986 L 1026 987 L 1021 992 L 1017 993 L 1012 998 L 1010 998 L 1006 1001 L 1004 1001 L 1000 1004 L 996 1005 L 991 1010 L 989 1010 L 985 1013 L 983 1013 L 979 1016 L 975 1017 L 973 1019 L 968 1019 L 964 1022 L 962 1022 L 958 1025 L 954 1026 L 952 1028 L 947 1028 L 943 1031 L 939 1032 L 937 1034 L 932 1034 L 928 1037 L 923 1037 L 919 1040 L 914 1040 L 910 1043 L 901 1043 L 898 1046 L 889 1046 L 886 1049 L 878 1049 L 874 1052 L 860 1052 L 856 1055 L 839 1055 L 835 1058 L 806 1058 L 804 1059 L 801 1057 L 804 1055 L 806 1056 L 825 1056 L 829 1053 L 843 1053 L 847 1050 L 858 1050 L 862 1047 L 873 1047 L 877 1044 L 883 1044 L 886 1041 L 895 1041 L 898 1038 L 903 1038 L 907 1035 L 912 1035 L 916 1032 L 921 1032 L 925 1029 L 929 1028 L 931 1026 L 936 1026 L 940 1023 L 942 1023 L 946 1020 L 950 1019 L 952 1017 L 957 1017 L 961 1014 L 963 1014 L 967 1011 L 969 1011 L 973 1008 L 977 1007 L 982 1002 L 984 1002 L 988 999 L 992 998 L 997 993 L 999 993 L 1003 990 L 1007 989 L 1012 984 L 1016 983 L 1021 978 L 1025 977 L 1033 969 L 1037 968 L 1045 960 L 1049 959 L 1066 942 L 1070 941 L 1097 914 L 1098 910 L 1115 893 L 1116 889 L 1124 881 L 1125 877 L 1133 869 L 1134 865 L 1139 860 L 1140 856 L 1145 851 L 1146 847 L 1151 842 L 1152 838 L 1154 836 L 1155 832 L 1157 830 L 1158 826 L 1161 822 L 1161 820 L 1166 815 L 1167 811 L 1169 809 L 1170 805 L 1173 801 L 1173 796 L 1175 794 L 1176 790 L 1178 788 L 1179 784 L 1181 782 L 1182 778 L 1185 774 L 1185 769 L 1188 765 L 1188 760 L 1191 756 L 1191 751 L 1194 747 L 1194 739 L 1193 738 L 1191 738 L 1186 743 L 1184 743 L 1180 746 L 1178 746 L 1174 749 L 1170 750 L 1168 752 L 1162 752 L 1160 754 L 1160 760 L 1158 762 L 1157 766 L 1154 770 L 1154 775 L 1152 777 L 1151 781 L 1149 783 L 1148 787 L 1146 789 L 1145 793 L 1143 795 L 1142 799 L 1140 801 L 1139 805 L 1137 807 L 1136 811 L 1133 815 L 1133 817 L 1128 822 L 1127 826 L 1124 830 L 1124 832 L 1119 837 L 1118 841 L 1113 846 L 1112 850 L 1104 858 L 1103 862 L 1095 870 L 1094 874 L 1071 897 L 1070 901 L 1063 908 L 1059 909 L 1036 932 L 1032 933 L 1024 941 L 1020 942 L 1012 950 L 1008 951 L 1003 956 L 999 957 L 994 962 L 992 962 L 988 965 L 986 965 L 982 968 L 978 969 L 973 974 L 971 974 L 967 977 L 965 977 L 961 980 L 959 980 L 955 983 L 951 984 L 949 986 L 944 986 L 940 989 L 936 990 L 934 992 L 928 992 L 925 995 L 923 995 L 919 998 L 913 998 L 910 1001 L 904 1001 L 901 1004 L 893 1004 L 889 1007 L 881 1007 L 877 1010 L 869 1010 L 865 1013 L 854 1013 L 850 1016 L 830 1016 L 824 1020 L 823 1019 L 806 1019 L 804 1020 L 801 1018 L 804 1016 L 806 1017 L 822 1017 L 828 1013 L 829 1014 L 840 1014 L 844 1011 L 855 1011 L 859 1008 L 867 1008 L 871 1005 L 876 1005 L 880 1002 L 888 1002 L 892 999 L 898 999 L 901 996 L 907 996 L 910 993 L 912 993 L 916 990 L 922 990 L 925 987 L 927 987 L 931 984 L 933 984 L 937 981 L 939 981 L 943 978 L 945 978 L 949 975 L 951 975 L 955 972 L 957 972 L 961 969 L 963 969 L 967 966 L 971 965 L 976 960 L 978 960 L 982 957 L 986 956 L 991 951 L 995 950 L 1000 945 L 1004 944 L 1012 936 L 1016 935 L 1030 921 L 1034 920 L 1076 878 L 1077 874 L 1088 863 L 1089 859 L 1097 851 L 1098 847 L 1103 842 L 1104 838 L 1109 833 L 1110 829 L 1115 824 L 1116 820 L 1121 815 L 1122 811 L 1124 809 L 1125 805 L 1127 803 L 1128 799 L 1130 797 L 1131 793 L 1133 791 L 1134 787 L 1136 785 L 1137 781 L 1139 779 L 1140 775 L 1143 771 L 1143 766 L 1146 762 L 1146 757 L 1144 755 L 1129 755 L 1127 753 L 1123 752 L 1120 749 L 1117 749 L 1112 755 L 1112 760 L 1110 762 L 1109 766 L 1107 768 L 1106 772 L 1104 774 L 1103 778 L 1101 780 L 1100 784 L 1098 786 L 1097 790 L 1095 792 L 1094 796 L 1091 800 L 1091 802 L 1086 807 L 1085 811 L 1080 816 L 1079 820 L 1074 825 L 1073 829 L 1065 837 L 1064 841 L 1053 852 L 1052 856 L 1018 890 L 1014 891 L 1000 905 L 996 906 L 988 914 L 984 915 L 979 920 L 975 921 L 970 926 L 968 926 L 964 929 L 962 929 L 958 932 L 956 932 L 952 935 L 948 936 L 943 941 L 941 941 L 937 944 L 931 944 L 928 947 L 926 947 L 922 950 L 918 951 L 916 953 L 911 953 L 907 956 L 902 956 L 898 959 L 893 959 L 889 962 L 884 962 L 880 965 L 875 965 L 871 968 L 860 968 L 856 971 L 845 971 L 839 975 L 838 974 L 823 974 L 822 973 L 825 971 L 827 972 L 837 972 L 843 968 L 844 969 L 849 969 L 853 966 L 861 966 L 865 963 L 870 963 L 874 960 L 882 960 L 886 957 L 890 956 L 892 954 L 897 954 L 901 951 L 906 951 L 910 948 L 912 948 L 916 945 L 918 945 L 922 942 L 924 942 L 928 939 L 930 939 L 934 936 L 936 936 L 940 933 L 942 933 L 946 930 L 950 929 L 955 924 L 959 923 L 964 918 L 968 917 L 973 912 L 977 911 L 982 906 L 986 905 L 997 894 L 1001 893 L 1049 845 L 1050 841 L 1058 833 L 1059 829 L 1067 821 L 1068 817 L 1073 812 L 1074 808 L 1079 803 L 1080 799 L 1083 795 L 1083 793 L 1088 788 L 1089 784 L 1091 782 L 1092 778 L 1094 776 L 1095 772 L 1097 770 L 1098 766 L 1100 764 L 1101 760 L 1104 756 L 1104 751 L 1107 748 L 1107 745 L 1103 741 L 1099 740 L 1097 738 L 1093 737 L 1091 735 L 1087 734 L 1085 732 L 1083 732 L 1079 737 L 1079 742 L 1077 744 L 1076 748 L 1074 750 L 1073 754 L 1071 756 L 1070 760 L 1068 762 L 1067 766 L 1065 768 L 1064 772 L 1062 774 L 1061 778 L 1058 782 L 1058 784 L 1053 789 L 1052 793 L 1047 798 L 1046 802 L 1038 810 L 1037 814 L 1029 822 L 1028 826 L 988 866 L 984 867 L 973 878 L 969 879 L 964 884 L 960 885 L 955 890 L 951 891 L 946 896 L 944 896 L 940 899 L 938 899 L 934 902 L 930 903 L 925 908 L 920 908 L 916 911 L 914 911 L 910 914 L 908 914 L 904 917 L 900 918 L 898 920 L 893 920 L 889 923 L 884 923 L 880 926 L 875 926 L 871 929 L 863 929 L 857 933 L 856 932 L 851 932 L 845 936 L 844 935 L 836 935 L 830 939 L 829 938 L 821 938 L 819 939 L 816 937 L 819 935 L 821 936 L 828 936 L 834 932 L 835 933 L 843 933 L 849 929 L 850 930 L 855 930 L 859 927 L 864 927 L 868 924 L 873 924 L 877 921 L 882 921 L 886 918 L 890 917 L 892 915 L 897 915 L 901 912 L 903 912 L 907 909 L 909 909 L 913 906 L 915 906 L 919 903 L 921 903 L 925 900 L 929 899 L 934 894 L 936 894 L 940 891 L 944 890 L 949 885 L 953 884 L 961 876 L 965 875 L 973 867 L 977 866 L 1022 821 L 1023 817 L 1031 809 L 1032 805 L 1040 797 L 1041 793 L 1046 788 L 1047 784 L 1052 779 L 1053 775 L 1055 773 L 1056 769 L 1058 767 L 1059 763 L 1061 761 L 1061 759 L 1060 758 L 1057 758 L 1048 767 L 1046 767 L 1042 770 L 1040 770 L 1036 773 L 1034 773 L 1030 776 L 1026 777 L 1024 779 L 1019 779 L 1017 780 L 1008 789 L 1007 793 L 996 804 L 995 808 L 967 836 L 963 837 L 952 848 L 948 849 L 943 854 L 939 855 L 934 860 L 930 861 L 925 866 L 923 866 L 919 869 L 917 869 L 913 872 L 911 872 L 907 875 L 905 875 L 901 878 L 899 878 L 895 881 L 891 882 L 889 884 L 884 884 L 880 887 L 876 888 L 874 890 L 869 890 L 865 893 L 857 893 L 851 897 L 850 896 L 844 896 L 843 895 L 846 893 L 847 894 L 849 894 L 853 891 L 858 891 L 862 888 L 867 888 L 871 885 L 876 885 L 880 882 L 882 882 L 886 879 L 888 879 L 892 876 L 894 876 L 898 873 L 900 873 L 904 870 L 906 870 L 910 867 L 912 867 L 916 864 L 920 863 L 925 858 L 929 857 L 934 852 L 938 851 L 946 843 L 950 842 L 970 822 L 974 821 L 977 818 L 978 814 L 998 794 L 999 790 L 1001 788 L 1001 786 L 1000 785 L 995 785 L 991 788 L 973 788 L 971 791 L 971 793 L 952 812 L 948 813 L 934 827 L 930 828 L 925 833 L 921 834 L 916 839 L 912 840 L 907 845 L 905 845 L 901 848 L 899 848 L 895 851 L 893 851 L 889 854 L 887 854 L 883 857 L 879 858 L 877 860 L 872 860 L 868 863 L 864 864 L 862 866 L 857 866 L 851 870 L 850 869 L 844 869 L 843 868 L 846 866 L 847 867 L 849 867 L 853 864 L 858 864 L 862 861 L 866 860 L 868 858 L 873 858 L 877 855 L 879 855 L 883 852 L 885 852 L 889 849 L 893 848 L 898 843 L 900 843 L 904 840 L 908 839 L 913 834 L 917 833 L 925 825 L 929 824 L 940 813 L 944 812 L 963 793 L 963 790 L 961 788 L 943 788 L 941 786 L 939 786 L 937 788 L 933 789 L 919 803 L 915 804 L 907 812 L 903 813 L 898 818 L 896 818 L 892 821 L 890 821 L 886 824 L 884 824 L 880 827 L 878 827 L 874 830 L 872 830 L 868 833 L 866 833 L 862 836 L 859 837 L 855 835 L 858 833 L 860 833 L 862 831 L 866 830 L 868 828 L 872 827 L 874 825 L 878 824 L 880 822 L 884 821 L 886 819 L 890 818 L 895 813 L 899 812 L 904 807 L 908 806 L 916 798 L 920 797 L 929 788 L 929 786 L 928 785 L 925 785 L 923 783 L 919 782 L 917 780 L 913 779 L 911 777 L 909 777 L 904 782 L 900 783 L 892 791 L 888 792 L 883 797 L 881 797 L 877 800 L 874 800 L 873 799 L 877 795 L 881 794 L 886 789 L 890 788 L 898 780 L 902 779 L 903 777 L 903 772 L 900 770 L 898 770 L 888 760 L 887 756 L 881 750 L 879 750 L 877 752 L 875 752 L 871 755 L 869 755 L 865 758 L 863 758 L 859 761 L 855 762 L 853 764 L 848 764 L 844 767 L 839 767 L 835 770 L 830 770 L 826 773 L 815 773 L 811 776 L 785 776 L 781 779 L 778 779 L 774 776 L 748 776 L 744 773 L 736 773 L 732 770 L 724 770 L 720 767 L 715 767 L 713 765 L 709 764 L 707 762 L 703 761 L 701 759 L 697 758 L 695 756 L 691 755 L 689 753 L 685 752 L 683 750 L 679 749 L 675 746 L 649 746 L 647 744 L 643 743 L 639 740 L 637 740 L 625 728 L 622 728 L 619 731 L 615 732 L 610 737 L 608 737 L 604 740 L 600 741 L 598 743 L 593 743 L 589 746 L 578 746 L 574 749 L 571 749 L 567 746 L 556 746 L 554 744 L 550 743 L 546 740 L 544 740 L 535 731 L 532 731 L 520 743 L 518 743 L 514 746 L 510 747 L 508 749 L 494 749 L 490 752 L 484 752 L 480 749 L 469 749 L 467 747 L 463 746 L 459 743 L 457 743 L 447 733 L 446 729 L 433 716 L 430 716 L 421 725 L 417 726 L 409 734 L 405 735 L 400 740 L 398 740 L 394 743 L 390 744 L 388 746 L 380 746 L 376 749 L 352 749 L 348 746 L 343 746 L 341 744 L 337 743 L 335 741 L 331 740 L 327 737 L 325 737 L 307 719 L 304 719 L 302 722 L 302 724 L 297 729 L 296 733 L 293 737 L 293 739 L 259 773 L 257 773 L 253 776 L 249 777 L 244 782 L 242 782 L 238 785 L 234 786 L 233 787 Z M 831 1159 L 834 1157 L 836 1158 L 839 1157 L 842 1159 L 839 1161 L 837 1160 L 834 1161 Z M 852 1156 L 855 1154 L 857 1155 L 861 1155 L 863 1154 L 866 1156 L 863 1158 L 861 1157 L 857 1157 L 855 1158 Z M 870 1153 L 873 1151 L 875 1152 L 883 1152 L 884 1153 L 881 1155 L 879 1154 L 875 1154 L 873 1155 Z M 798 976 L 801 974 L 803 975 L 820 975 L 821 976 L 818 978 L 816 977 L 803 977 L 801 978 Z M 789 940 L 792 938 L 794 939 L 801 939 L 803 938 L 806 940 L 803 942 L 801 941 L 794 941 L 792 942 Z M 792 904 L 795 902 L 797 903 L 801 903 L 803 902 L 806 904 L 803 906 L 801 905 L 797 905 L 795 906 Z M 816 901 L 819 899 L 821 900 L 824 899 L 827 901 L 824 903 L 822 902 L 819 903 Z M 831 898 L 834 896 L 836 897 L 841 897 L 842 898 L 839 900 L 837 899 L 834 900 Z M 801 877 L 804 875 L 806 876 L 809 875 L 812 877 L 809 879 L 807 878 L 804 879 Z M 819 874 L 822 872 L 824 873 L 827 872 L 830 874 L 827 876 L 825 875 L 822 876 Z M 834 871 L 837 869 L 842 871 L 839 873 L 837 873 Z M 798 850 L 800 848 L 803 850 L 801 852 Z M 816 847 L 819 845 L 821 845 L 824 847 L 821 849 L 819 849 Z M 828 844 L 831 842 L 836 844 L 833 846 L 831 846 Z M 837 841 L 840 839 L 845 841 L 842 843 Z M 846 838 L 849 836 L 854 838 L 851 840 Z M 807 823 L 809 821 L 812 823 L 810 825 Z M 819 820 L 822 818 L 824 818 L 827 820 L 824 822 L 822 822 Z M 831 817 L 833 815 L 836 817 L 834 819 Z M 840 814 L 842 812 L 845 814 L 843 816 Z M 846 811 L 849 809 L 854 811 L 851 813 Z M 855 808 L 857 806 L 860 808 L 858 810 Z M 861 805 L 863 803 L 866 805 L 864 807 Z M 867 802 L 869 800 L 872 802 L 870 804 Z M 369 569 L 365 569 L 361 572 L 357 573 L 348 582 L 347 586 L 344 590 L 344 595 L 341 599 L 341 618 L 342 620 L 354 632 L 356 633 L 366 633 L 370 630 L 374 629 L 380 623 L 381 619 L 384 615 L 384 610 L 387 606 L 387 587 L 384 583 L 383 579 L 377 573 L 373 572 Z M 271 569 L 269 571 L 269 574 L 275 580 L 275 583 L 276 584 L 278 584 L 279 583 L 279 580 L 285 574 L 285 571 L 283 569 Z M 773 563 L 769 566 L 765 567 L 762 570 L 761 574 L 758 578 L 758 588 L 761 592 L 762 596 L 768 602 L 772 603 L 776 606 L 783 606 L 787 603 L 791 602 L 800 593 L 801 591 L 801 578 L 798 574 L 797 570 L 794 567 L 790 566 L 786 563 Z M 760 533 L 757 536 L 753 537 L 748 542 L 744 543 L 738 549 L 737 553 L 732 558 L 731 562 L 728 566 L 728 574 L 725 578 L 725 591 L 728 595 L 728 600 L 731 604 L 731 606 L 734 610 L 735 614 L 750 629 L 754 630 L 756 632 L 760 633 L 764 636 L 775 636 L 778 639 L 781 639 L 784 636 L 795 636 L 799 633 L 801 633 L 805 630 L 809 629 L 827 611 L 828 609 L 828 604 L 831 600 L 831 595 L 834 591 L 834 586 L 832 584 L 826 584 L 824 586 L 824 592 L 821 596 L 821 601 L 819 603 L 818 607 L 802 623 L 800 623 L 796 626 L 791 626 L 787 629 L 772 629 L 768 626 L 763 626 L 761 624 L 757 623 L 741 607 L 741 605 L 738 601 L 738 596 L 735 592 L 735 574 L 738 570 L 738 565 L 743 560 L 744 556 L 751 549 L 755 548 L 760 543 L 762 543 L 765 541 L 765 535 L 763 533 Z M 1062 480 L 1062 470 L 1061 468 L 1055 462 L 1053 461 L 1048 461 L 1044 458 L 1034 458 L 1030 461 L 1022 461 L 1018 464 L 1013 464 L 1009 467 L 1007 467 L 1003 470 L 1001 470 L 998 472 L 998 475 L 999 476 L 1003 477 L 1005 479 L 1009 480 L 1011 482 L 1015 483 L 1017 485 L 1021 486 L 1025 489 L 1030 489 L 1034 492 L 1053 492 L 1058 488 L 1059 484 Z M 206 472 L 206 475 L 207 476 L 211 477 L 213 479 L 217 480 L 219 482 L 223 483 L 227 486 L 232 486 L 236 489 L 252 489 L 257 485 L 258 481 L 261 478 L 261 475 L 258 472 L 258 467 L 257 465 L 254 462 L 250 461 L 246 458 L 227 458 L 223 461 L 221 461 L 217 464 L 213 465 Z M 5 446 L 5 451 L 2 455 L 2 466 L 0 467 L 0 489 L 2 490 L 2 501 L 5 505 L 5 507 L 8 511 L 8 513 L 11 517 L 12 521 L 32 541 L 33 545 L 51 563 L 55 564 L 57 566 L 61 567 L 63 569 L 67 570 L 71 573 L 79 573 L 80 574 L 80 577 L 79 578 L 77 578 L 73 581 L 71 581 L 67 584 L 63 585 L 48 600 L 47 604 L 42 609 L 41 613 L 38 617 L 38 622 L 35 626 L 35 634 L 32 638 L 32 684 L 35 688 L 35 693 L 38 697 L 38 702 L 41 706 L 42 710 L 47 715 L 48 719 L 68 739 L 69 743 L 87 761 L 91 762 L 96 767 L 100 768 L 102 770 L 106 771 L 108 773 L 112 774 L 116 777 L 121 777 L 125 780 L 133 780 L 137 783 L 154 783 L 158 786 L 177 786 L 181 783 L 198 783 L 202 780 L 210 780 L 214 777 L 219 777 L 223 774 L 225 774 L 229 771 L 231 771 L 235 768 L 237 768 L 241 765 L 243 765 L 247 762 L 251 761 L 262 750 L 266 749 L 269 746 L 270 742 L 278 734 L 279 730 L 284 725 L 285 721 L 288 717 L 288 712 L 291 708 L 291 703 L 294 699 L 294 685 L 293 684 L 295 681 L 297 684 L 297 686 L 317 706 L 318 710 L 333 725 L 337 726 L 339 728 L 343 729 L 347 732 L 352 732 L 356 735 L 375 735 L 379 732 L 384 732 L 388 729 L 393 729 L 395 728 L 400 723 L 404 722 L 412 714 L 416 713 L 422 707 L 423 703 L 431 695 L 431 693 L 433 690 L 435 693 L 435 695 L 437 697 L 438 701 L 447 710 L 451 711 L 455 715 L 455 720 L 456 722 L 468 734 L 470 735 L 475 735 L 479 738 L 489 738 L 493 735 L 501 735 L 505 732 L 509 731 L 514 726 L 518 725 L 532 711 L 538 711 L 540 716 L 542 718 L 543 722 L 552 731 L 554 732 L 559 732 L 563 735 L 576 735 L 580 732 L 585 732 L 589 729 L 594 729 L 598 726 L 602 725 L 607 720 L 611 719 L 617 713 L 618 709 L 622 705 L 625 705 L 635 715 L 636 719 L 648 731 L 652 732 L 656 735 L 661 735 L 665 738 L 672 738 L 676 735 L 684 735 L 688 732 L 690 732 L 694 729 L 696 729 L 700 726 L 704 725 L 722 707 L 723 703 L 726 699 L 726 694 L 729 690 L 729 686 L 725 681 L 723 681 L 721 683 L 716 683 L 712 686 L 706 686 L 705 685 L 707 683 L 708 679 L 711 675 L 711 667 L 714 663 L 714 659 L 713 657 L 708 653 L 704 653 L 700 656 L 697 656 L 696 655 L 696 640 L 699 636 L 699 619 L 702 615 L 702 601 L 705 597 L 705 583 L 708 579 L 708 568 L 711 564 L 711 550 L 714 546 L 714 535 L 717 531 L 717 517 L 720 513 L 720 502 L 723 498 L 723 484 L 726 480 L 726 461 L 723 457 L 722 453 L 719 450 L 717 449 L 712 449 L 711 448 L 711 434 L 708 430 L 707 426 L 704 423 L 700 422 L 696 419 L 680 419 L 676 422 L 671 422 L 667 425 L 665 425 L 661 428 L 657 429 L 652 434 L 648 435 L 632 451 L 632 454 L 634 456 L 640 456 L 644 460 L 644 475 L 641 479 L 641 496 L 638 500 L 638 514 L 635 518 L 635 532 L 632 536 L 632 547 L 629 551 L 629 562 L 626 566 L 626 580 L 623 584 L 623 595 L 620 599 L 620 610 L 617 614 L 617 628 L 614 632 L 614 643 L 611 647 L 611 655 L 612 656 L 610 659 L 608 656 L 608 654 L 606 653 L 601 653 L 600 652 L 600 643 L 603 639 L 603 628 L 606 624 L 606 613 L 609 609 L 609 589 L 612 585 L 612 578 L 609 574 L 609 569 L 608 567 L 602 561 L 598 560 L 594 556 L 594 545 L 591 541 L 590 537 L 587 534 L 583 533 L 581 531 L 577 530 L 573 527 L 566 527 L 562 530 L 554 530 L 550 533 L 548 533 L 544 536 L 540 537 L 532 545 L 528 546 L 519 555 L 517 560 L 515 558 L 510 556 L 510 542 L 509 540 L 500 531 L 498 530 L 493 530 L 489 527 L 485 527 L 481 530 L 473 530 L 469 533 L 467 533 L 463 536 L 461 536 L 457 539 L 453 540 L 435 558 L 435 560 L 438 563 L 443 565 L 443 567 L 446 571 L 446 574 L 443 578 L 443 589 L 444 590 L 442 593 L 440 590 L 440 588 L 438 586 L 437 582 L 429 574 L 429 569 L 426 565 L 426 563 L 423 559 L 422 555 L 404 537 L 400 536 L 398 534 L 394 533 L 390 530 L 385 530 L 381 527 L 359 527 L 355 530 L 350 530 L 346 533 L 344 533 L 340 536 L 338 536 L 334 539 L 330 540 L 325 545 L 321 546 L 309 558 L 308 562 L 303 567 L 302 571 L 297 576 L 296 580 L 294 582 L 293 586 L 290 590 L 290 595 L 287 599 L 287 607 L 284 610 L 284 616 L 285 617 L 283 620 L 281 617 L 281 615 L 279 613 L 278 609 L 270 601 L 270 596 L 267 592 L 266 588 L 261 583 L 260 579 L 239 558 L 235 557 L 227 549 L 223 548 L 218 543 L 214 542 L 209 536 L 211 534 L 216 539 L 220 540 L 222 542 L 226 543 L 230 546 L 235 546 L 239 549 L 244 549 L 248 552 L 259 552 L 263 555 L 273 555 L 277 552 L 288 552 L 292 549 L 297 549 L 301 546 L 305 545 L 323 527 L 324 523 L 327 519 L 327 514 L 330 510 L 330 491 L 327 487 L 327 482 L 324 478 L 324 476 L 321 472 L 320 468 L 312 460 L 312 455 L 309 451 L 309 449 L 306 445 L 305 441 L 287 423 L 283 422 L 281 420 L 277 419 L 275 417 L 271 416 L 267 413 L 259 413 L 255 410 L 221 410 L 217 413 L 209 413 L 205 416 L 201 417 L 199 419 L 194 419 L 190 422 L 186 423 L 181 428 L 177 429 L 172 434 L 170 434 L 166 437 L 163 437 L 158 432 L 154 431 L 152 429 L 148 428 L 146 426 L 142 425 L 140 423 L 136 422 L 134 420 L 130 419 L 128 417 L 124 416 L 122 414 L 118 413 L 116 411 L 112 410 L 108 407 L 103 407 L 99 404 L 94 404 L 90 401 L 82 401 L 78 398 L 56 398 L 52 401 L 47 401 L 43 404 L 39 405 L 31 413 L 27 414 L 21 420 L 20 424 L 12 432 L 11 436 L 9 438 L 8 442 Z M 603 685 L 607 681 L 610 681 L 611 682 L 611 685 L 610 686 L 604 686 Z M 517 621 L 519 625 L 517 629 L 515 626 L 515 624 Z M 172 603 L 194 625 L 194 630 L 197 634 L 194 638 L 194 643 L 192 645 L 191 649 L 187 653 L 185 653 L 181 656 L 177 657 L 175 659 L 169 659 L 168 658 L 170 656 L 171 652 L 175 648 L 179 647 L 185 641 L 186 639 L 186 629 L 183 625 L 182 621 L 171 610 L 171 604 Z M 529 564 L 530 565 L 530 568 L 527 572 L 527 589 L 528 590 L 524 596 L 524 604 L 525 605 L 521 611 L 521 615 L 522 617 L 520 620 L 519 619 L 519 610 L 518 609 L 522 603 L 522 595 L 521 594 L 525 588 L 525 569 L 522 565 L 523 564 Z M 123 568 L 128 566 L 133 561 L 149 577 L 148 578 L 145 578 L 143 576 L 139 575 L 136 572 L 124 572 L 123 571 Z M 460 546 L 462 546 L 466 543 L 470 542 L 472 540 L 477 540 L 481 537 L 493 537 L 500 544 L 500 562 L 497 566 L 497 577 L 494 581 L 494 592 L 491 596 L 491 607 L 488 611 L 488 642 L 489 644 L 497 651 L 510 651 L 512 650 L 524 638 L 525 636 L 525 631 L 528 627 L 528 622 L 531 618 L 531 607 L 534 603 L 534 592 L 537 588 L 537 568 L 539 566 L 539 564 L 537 562 L 537 560 L 534 556 L 534 553 L 539 551 L 544 546 L 546 546 L 550 543 L 552 543 L 556 540 L 560 539 L 562 537 L 574 537 L 576 539 L 580 540 L 584 544 L 584 546 L 587 550 L 587 562 L 584 566 L 584 586 L 581 590 L 581 601 L 578 605 L 578 616 L 575 620 L 575 631 L 572 635 L 572 646 L 569 650 L 569 660 L 573 665 L 577 666 L 581 669 L 585 669 L 589 666 L 594 666 L 598 663 L 601 663 L 602 664 L 602 670 L 600 672 L 599 676 L 580 695 L 578 695 L 574 698 L 569 698 L 565 701 L 557 701 L 553 704 L 547 704 L 543 701 L 538 701 L 536 699 L 532 698 L 530 693 L 528 691 L 527 687 L 525 685 L 525 667 L 524 666 L 522 666 L 516 672 L 515 676 L 496 695 L 492 696 L 487 701 L 482 701 L 478 704 L 454 704 L 444 694 L 444 692 L 441 688 L 441 640 L 444 636 L 444 622 L 447 618 L 447 607 L 450 603 L 450 592 L 453 588 L 453 566 L 450 562 L 450 556 Z M 382 537 L 386 540 L 391 540 L 393 542 L 397 543 L 413 559 L 414 563 L 419 568 L 419 573 L 422 577 L 422 582 L 425 586 L 425 625 L 422 629 L 422 637 L 419 641 L 419 646 L 417 648 L 416 652 L 413 656 L 413 658 L 408 663 L 407 667 L 399 675 L 398 679 L 394 683 L 390 684 L 382 692 L 380 692 L 376 695 L 374 695 L 370 698 L 366 699 L 364 701 L 356 701 L 352 704 L 343 704 L 339 701 L 331 701 L 329 699 L 325 698 L 321 695 L 319 695 L 303 679 L 303 677 L 300 673 L 299 669 L 297 667 L 297 662 L 294 658 L 294 650 L 291 646 L 291 622 L 294 618 L 294 607 L 297 603 L 297 598 L 299 596 L 300 592 L 302 590 L 303 586 L 305 584 L 306 580 L 309 576 L 309 574 L 317 566 L 318 562 L 325 555 L 329 554 L 337 546 L 339 546 L 343 543 L 347 542 L 349 540 L 354 540 L 358 537 Z M 124 531 L 126 533 L 124 536 L 122 534 Z M 124 498 L 125 499 L 125 514 L 124 515 L 117 508 L 117 505 Z M 694 429 L 701 436 L 701 460 L 698 464 L 698 475 L 695 479 L 695 490 L 692 494 L 692 508 L 689 512 L 689 523 L 686 527 L 686 541 L 683 545 L 683 556 L 680 560 L 680 574 L 677 578 L 677 592 L 674 596 L 674 613 L 671 617 L 671 637 L 668 641 L 668 657 L 671 661 L 672 665 L 676 666 L 680 669 L 690 669 L 694 666 L 699 666 L 703 663 L 705 665 L 702 669 L 701 673 L 698 677 L 698 679 L 685 692 L 681 693 L 676 698 L 674 698 L 670 701 L 665 701 L 661 704 L 640 704 L 638 702 L 634 701 L 621 688 L 621 683 L 618 679 L 618 658 L 621 654 L 621 643 L 624 639 L 624 628 L 627 624 L 627 610 L 630 606 L 630 595 L 633 591 L 633 580 L 636 576 L 636 565 L 639 561 L 639 547 L 642 543 L 642 532 L 645 528 L 645 514 L 648 510 L 648 496 L 651 492 L 651 475 L 654 471 L 654 458 L 648 451 L 648 448 L 652 444 L 656 443 L 664 435 L 666 435 L 670 432 L 675 432 L 679 429 Z M 55 408 L 79 408 L 83 411 L 91 411 L 95 414 L 100 414 L 102 416 L 106 417 L 110 420 L 115 420 L 117 422 L 121 423 L 123 425 L 127 426 L 129 428 L 133 429 L 137 432 L 139 432 L 144 437 L 148 438 L 152 441 L 154 441 L 159 446 L 163 447 L 165 449 L 167 449 L 172 444 L 176 443 L 184 435 L 186 435 L 190 432 L 192 432 L 196 429 L 198 429 L 202 426 L 206 425 L 208 423 L 213 423 L 217 420 L 256 420 L 260 423 L 265 423 L 269 426 L 274 426 L 279 431 L 283 432 L 296 445 L 296 447 L 299 451 L 299 453 L 302 457 L 303 461 L 305 463 L 305 484 L 302 488 L 302 493 L 300 495 L 299 499 L 286 512 L 284 512 L 280 515 L 278 515 L 274 518 L 270 519 L 268 521 L 235 521 L 231 518 L 223 518 L 221 516 L 217 515 L 213 512 L 208 512 L 203 507 L 199 506 L 195 503 L 193 503 L 190 500 L 187 500 L 185 502 L 185 522 L 188 526 L 189 530 L 210 551 L 214 552 L 219 557 L 223 558 L 228 563 L 232 564 L 254 586 L 254 588 L 257 592 L 257 594 L 260 598 L 261 602 L 263 604 L 263 609 L 266 613 L 266 621 L 269 625 L 269 673 L 266 677 L 266 682 L 263 686 L 263 691 L 261 693 L 260 697 L 255 702 L 254 706 L 232 728 L 228 729 L 223 734 L 221 734 L 217 737 L 215 737 L 211 740 L 207 741 L 205 743 L 200 743 L 196 746 L 191 746 L 187 749 L 179 749 L 175 752 L 124 752 L 120 749 L 109 749 L 105 746 L 100 746 L 98 744 L 94 743 L 92 741 L 88 740 L 84 737 L 82 737 L 77 732 L 73 731 L 57 715 L 56 711 L 51 706 L 51 704 L 48 700 L 47 696 L 45 694 L 45 689 L 42 685 L 42 668 L 39 664 L 39 661 L 42 657 L 42 637 L 45 633 L 45 625 L 47 623 L 48 619 L 51 615 L 51 613 L 56 608 L 57 604 L 67 594 L 71 593 L 76 588 L 78 588 L 82 585 L 87 585 L 91 582 L 99 582 L 103 579 L 124 579 L 128 582 L 133 582 L 137 585 L 142 585 L 147 590 L 151 591 L 155 595 L 156 599 L 161 604 L 161 613 L 156 615 L 144 627 L 143 629 L 143 642 L 146 646 L 146 651 L 147 653 L 159 665 L 161 666 L 166 666 L 170 669 L 174 669 L 178 666 L 183 666 L 187 663 L 191 662 L 200 653 L 201 649 L 204 645 L 204 626 L 201 622 L 201 620 L 198 616 L 197 612 L 189 604 L 188 600 L 170 582 L 166 581 L 147 562 L 146 558 L 141 553 L 141 551 L 138 547 L 137 543 L 135 541 L 135 530 L 132 526 L 132 517 L 135 513 L 135 499 L 138 495 L 138 490 L 140 488 L 141 484 L 144 480 L 144 475 L 143 474 L 139 473 L 137 471 L 133 470 L 129 467 L 121 467 L 117 464 L 110 464 L 106 467 L 102 468 L 93 477 L 92 481 L 89 485 L 89 501 L 92 505 L 93 509 L 99 515 L 101 516 L 109 516 L 111 518 L 115 519 L 116 520 L 116 526 L 109 533 L 105 534 L 100 539 L 95 539 L 91 542 L 83 542 L 79 545 L 70 545 L 66 542 L 55 542 L 53 540 L 49 539 L 47 537 L 43 536 L 39 533 L 37 533 L 21 517 L 20 513 L 15 508 L 15 503 L 12 499 L 12 494 L 9 490 L 9 469 L 12 465 L 12 457 L 15 453 L 15 448 L 17 446 L 18 442 L 21 438 L 21 436 L 43 414 L 45 414 L 49 411 L 53 410 Z M 755 446 L 755 454 L 752 458 L 752 495 L 755 499 L 755 504 L 758 508 L 758 513 L 759 515 L 764 520 L 765 524 L 785 544 L 786 548 L 801 563 L 805 564 L 810 569 L 812 570 L 817 570 L 821 573 L 832 573 L 836 576 L 840 576 L 844 573 L 850 573 L 851 574 L 851 580 L 848 584 L 848 601 L 845 605 L 845 627 L 848 631 L 848 651 L 851 655 L 851 663 L 854 667 L 854 675 L 857 679 L 857 684 L 860 688 L 860 690 L 863 694 L 863 696 L 866 700 L 866 702 L 869 706 L 870 710 L 875 715 L 876 719 L 893 736 L 894 740 L 918 764 L 922 765 L 924 767 L 928 768 L 932 771 L 937 771 L 941 774 L 952 774 L 956 777 L 993 777 L 997 774 L 1008 774 L 1012 771 L 1017 771 L 1021 768 L 1023 768 L 1027 765 L 1029 765 L 1033 762 L 1037 761 L 1042 756 L 1046 755 L 1067 734 L 1068 730 L 1073 725 L 1074 721 L 1076 719 L 1077 715 L 1079 713 L 1080 709 L 1082 707 L 1083 703 L 1085 701 L 1085 699 L 1087 696 L 1089 699 L 1088 700 L 1088 702 L 1094 709 L 1095 713 L 1099 714 L 1104 719 L 1109 721 L 1109 726 L 1112 730 L 1113 734 L 1116 737 L 1120 738 L 1122 740 L 1126 741 L 1130 744 L 1152 744 L 1156 741 L 1158 741 L 1162 738 L 1164 738 L 1168 735 L 1172 734 L 1189 717 L 1195 717 L 1199 721 L 1199 726 L 1200 728 L 1209 737 L 1213 738 L 1217 741 L 1242 741 L 1246 738 L 1251 738 L 1255 735 L 1257 735 L 1261 732 L 1265 731 L 1283 713 L 1284 709 L 1286 707 L 1288 702 L 1293 707 L 1297 708 L 1301 712 L 1301 714 L 1304 718 L 1305 722 L 1314 731 L 1318 732 L 1322 735 L 1330 735 L 1334 738 L 1338 738 L 1342 735 L 1350 735 L 1354 732 L 1356 732 L 1360 729 L 1362 729 L 1366 726 L 1370 725 L 1388 707 L 1389 703 L 1391 701 L 1393 696 L 1406 709 L 1407 713 L 1422 728 L 1426 729 L 1428 731 L 1432 732 L 1436 735 L 1447 735 L 1451 738 L 1470 738 L 1474 735 L 1482 735 L 1486 732 L 1491 732 L 1495 729 L 1499 728 L 1504 723 L 1508 722 L 1517 713 L 1518 709 L 1523 704 L 1524 702 L 1524 697 L 1527 693 L 1527 688 L 1530 684 L 1530 662 L 1527 658 L 1527 653 L 1524 649 L 1523 645 L 1518 640 L 1517 636 L 1512 631 L 1512 626 L 1509 622 L 1508 618 L 1503 613 L 1503 610 L 1504 609 L 1509 614 L 1513 615 L 1517 618 L 1527 618 L 1535 611 L 1536 607 L 1538 606 L 1538 584 L 1536 583 L 1535 579 L 1524 568 L 1524 560 L 1521 556 L 1520 552 L 1511 543 L 1507 542 L 1502 537 L 1498 536 L 1494 533 L 1489 533 L 1485 530 L 1474 530 L 1470 527 L 1457 527 L 1453 530 L 1445 530 L 1441 533 L 1439 533 L 1435 536 L 1431 537 L 1423 545 L 1419 546 L 1418 550 L 1413 555 L 1412 559 L 1410 561 L 1409 565 L 1406 569 L 1406 573 L 1407 575 L 1405 578 L 1403 575 L 1404 573 L 1404 562 L 1402 560 L 1390 560 L 1389 559 L 1389 539 L 1383 532 L 1383 529 L 1386 525 L 1386 521 L 1383 517 L 1383 512 L 1378 506 L 1375 506 L 1372 509 L 1369 509 L 1368 508 L 1368 502 L 1371 499 L 1371 496 L 1368 493 L 1368 485 L 1367 483 L 1362 479 L 1355 479 L 1351 482 L 1347 483 L 1287 543 L 1286 547 L 1284 549 L 1283 553 L 1280 557 L 1280 570 L 1283 574 L 1284 578 L 1288 579 L 1292 583 L 1292 586 L 1289 590 L 1289 601 L 1286 605 L 1286 616 L 1283 620 L 1283 631 L 1280 635 L 1280 649 L 1277 653 L 1277 688 L 1276 689 L 1270 689 L 1269 688 L 1269 685 L 1272 681 L 1272 661 L 1270 659 L 1261 659 L 1260 658 L 1260 652 L 1263 648 L 1263 637 L 1266 633 L 1266 622 L 1269 618 L 1269 604 L 1272 600 L 1272 572 L 1269 568 L 1268 564 L 1265 561 L 1261 560 L 1257 556 L 1257 548 L 1254 544 L 1253 540 L 1244 531 L 1240 530 L 1236 527 L 1220 527 L 1216 530 L 1211 530 L 1207 533 L 1203 534 L 1198 539 L 1194 540 L 1177 557 L 1168 557 L 1167 556 L 1167 542 L 1164 538 L 1163 534 L 1160 531 L 1156 530 L 1152 527 L 1136 527 L 1132 530 L 1127 530 L 1123 533 L 1120 533 L 1119 532 L 1121 530 L 1122 526 L 1125 522 L 1125 517 L 1128 513 L 1128 491 L 1125 487 L 1125 482 L 1122 478 L 1122 476 L 1119 472 L 1118 468 L 1110 460 L 1110 455 L 1107 451 L 1107 449 L 1104 445 L 1103 441 L 1091 429 L 1087 428 L 1082 423 L 1078 422 L 1074 419 L 1069 419 L 1065 416 L 1057 416 L 1053 413 L 1019 413 L 1015 416 L 1004 416 L 1000 419 L 992 419 L 988 422 L 983 422 L 979 425 L 975 426 L 973 428 L 968 428 L 964 431 L 962 431 L 958 434 L 954 435 L 952 437 L 947 432 L 943 431 L 939 428 L 937 428 L 932 423 L 928 422 L 923 417 L 919 416 L 914 411 L 910 410 L 908 408 L 904 407 L 902 405 L 898 404 L 896 402 L 892 401 L 890 399 L 886 398 L 884 396 L 880 395 L 876 392 L 871 392 L 867 389 L 859 389 L 855 386 L 824 386 L 820 389 L 812 389 L 808 392 L 806 392 L 802 395 L 800 395 L 796 398 L 794 398 L 790 401 L 786 402 L 768 420 L 767 424 L 765 426 L 764 430 L 762 432 L 761 436 L 759 438 L 758 442 Z M 1378 669 L 1382 673 L 1382 682 L 1378 686 L 1372 686 L 1371 685 L 1373 683 L 1374 679 L 1377 676 L 1377 670 Z M 955 597 L 962 603 L 973 603 L 974 604 L 974 618 L 978 623 L 982 624 L 985 627 L 987 627 L 991 624 L 992 625 L 992 631 L 990 633 L 989 637 L 985 641 L 983 641 L 979 644 L 975 645 L 973 647 L 964 647 L 960 644 L 955 644 L 954 643 L 954 638 L 951 634 L 951 616 L 954 612 L 954 598 Z M 1371 607 L 1372 606 L 1399 606 L 1401 604 L 1401 596 L 1400 594 L 1402 591 L 1404 594 L 1403 595 L 1403 597 L 1406 601 L 1406 606 L 1409 610 L 1410 614 L 1415 619 L 1416 623 L 1436 643 L 1437 647 L 1454 664 L 1454 667 L 1453 668 L 1450 668 L 1428 646 L 1427 642 L 1421 636 L 1417 635 L 1413 632 L 1400 632 L 1398 633 L 1386 645 L 1385 649 L 1382 652 L 1382 658 L 1383 659 L 1381 662 L 1379 659 L 1379 657 L 1374 653 L 1369 653 L 1366 656 L 1363 656 L 1362 655 L 1362 652 L 1365 649 L 1365 631 L 1368 627 L 1368 616 L 1371 612 Z M 1186 564 L 1187 565 L 1187 583 L 1184 587 L 1184 604 L 1181 608 L 1181 616 L 1178 620 L 1178 628 L 1176 630 L 1176 632 L 1174 635 L 1172 632 L 1173 631 L 1173 625 L 1176 621 L 1176 610 L 1179 606 L 1179 592 L 1182 588 L 1182 565 L 1183 564 Z M 1066 555 L 1080 555 L 1084 552 L 1093 552 L 1094 553 L 1091 557 L 1091 562 L 1097 565 L 1097 567 L 1100 571 L 1100 580 L 1097 584 L 1097 595 L 1094 599 L 1094 601 L 1095 602 L 1093 605 L 1091 602 L 1091 600 L 1089 598 L 1088 594 L 1083 589 L 1083 587 L 1080 583 L 1080 581 L 1077 577 L 1077 575 L 1074 571 L 1073 567 L 1068 562 L 1068 560 L 1065 556 Z M 1495 543 L 1500 548 L 1504 549 L 1511 556 L 1511 558 L 1514 562 L 1514 580 L 1507 587 L 1501 587 L 1499 585 L 1495 584 L 1478 567 L 1474 566 L 1470 563 L 1463 563 L 1461 564 L 1458 567 L 1457 571 L 1455 573 L 1455 575 L 1457 577 L 1457 579 L 1460 583 L 1461 587 L 1467 593 L 1471 594 L 1482 605 L 1486 606 L 1493 613 L 1494 617 L 1499 622 L 1499 624 L 1502 628 L 1503 632 L 1505 634 L 1505 661 L 1502 665 L 1502 670 L 1500 672 L 1499 676 L 1477 698 L 1475 698 L 1471 701 L 1466 701 L 1462 704 L 1423 704 L 1419 701 L 1414 701 L 1412 699 L 1408 698 L 1392 682 L 1392 677 L 1389 673 L 1389 661 L 1392 657 L 1392 652 L 1405 639 L 1408 639 L 1413 644 L 1417 645 L 1421 649 L 1422 653 L 1443 674 L 1445 675 L 1458 675 L 1460 674 L 1467 666 L 1467 659 L 1466 657 L 1445 636 L 1441 635 L 1425 619 L 1424 615 L 1419 610 L 1419 608 L 1416 604 L 1415 600 L 1413 598 L 1413 577 L 1416 573 L 1416 568 L 1418 566 L 1419 562 L 1438 543 L 1440 543 L 1444 540 L 1449 540 L 1453 537 L 1474 537 L 1478 540 L 1486 540 L 1490 543 Z M 1111 549 L 1115 548 L 1120 543 L 1122 543 L 1126 540 L 1131 540 L 1135 537 L 1153 537 L 1157 541 L 1157 565 L 1154 569 L 1154 580 L 1151 584 L 1151 595 L 1148 599 L 1148 610 L 1145 614 L 1145 648 L 1146 650 L 1154 657 L 1164 657 L 1168 654 L 1172 653 L 1181 644 L 1182 642 L 1182 637 L 1184 635 L 1185 631 L 1188 627 L 1188 619 L 1191 615 L 1191 601 L 1194 597 L 1194 583 L 1197 579 L 1197 563 L 1191 556 L 1198 549 L 1202 548 L 1207 543 L 1209 543 L 1213 540 L 1217 539 L 1219 537 L 1237 537 L 1247 547 L 1247 577 L 1244 581 L 1244 595 L 1241 599 L 1241 610 L 1238 614 L 1238 625 L 1235 629 L 1235 640 L 1232 644 L 1232 652 L 1229 656 L 1229 660 L 1232 664 L 1233 668 L 1238 672 L 1254 672 L 1258 669 L 1264 669 L 1265 670 L 1265 673 L 1262 677 L 1262 682 L 1246 698 L 1242 699 L 1237 704 L 1235 704 L 1231 707 L 1226 707 L 1222 710 L 1201 710 L 1199 708 L 1195 707 L 1185 697 L 1185 689 L 1182 685 L 1182 673 L 1181 672 L 1179 672 L 1178 673 L 1178 676 L 1150 704 L 1148 704 L 1144 707 L 1140 708 L 1138 710 L 1133 710 L 1129 713 L 1114 713 L 1112 711 L 1108 710 L 1098 700 L 1098 698 L 1095 694 L 1095 643 L 1098 639 L 1098 628 L 1101 624 L 1101 610 L 1104 606 L 1104 598 L 1107 594 L 1107 577 L 1110 574 L 1110 571 L 1107 568 L 1107 563 L 1104 559 L 1104 556 Z M 1007 538 L 1007 541 L 1006 542 L 998 542 L 994 545 L 992 545 L 988 548 L 986 548 L 982 551 L 978 552 L 973 557 L 972 556 L 972 553 L 977 548 L 978 544 L 991 531 L 994 531 L 996 533 L 1000 534 L 1002 536 Z M 888 494 L 890 496 L 888 498 L 887 502 L 882 507 L 881 511 L 877 515 L 876 514 L 876 509 L 875 507 L 870 502 L 875 500 L 877 498 L 882 498 Z M 1357 489 L 1361 493 L 1361 508 L 1358 512 L 1358 526 L 1355 530 L 1355 538 L 1357 540 L 1378 540 L 1379 541 L 1379 565 L 1376 568 L 1376 574 L 1375 575 L 1371 572 L 1352 572 L 1350 573 L 1346 578 L 1346 589 L 1343 593 L 1343 604 L 1340 608 L 1340 619 L 1337 623 L 1337 660 L 1338 662 L 1346 669 L 1356 669 L 1360 666 L 1365 666 L 1369 663 L 1370 664 L 1370 670 L 1368 672 L 1367 676 L 1348 695 L 1346 695 L 1342 698 L 1338 699 L 1336 701 L 1331 701 L 1327 704 L 1306 704 L 1304 702 L 1300 701 L 1290 691 L 1290 689 L 1287 685 L 1287 677 L 1284 673 L 1284 667 L 1287 663 L 1287 649 L 1290 645 L 1290 634 L 1293 630 L 1293 616 L 1296 612 L 1296 601 L 1299 597 L 1299 589 L 1302 585 L 1302 578 L 1301 576 L 1296 572 L 1291 572 L 1290 571 L 1290 556 L 1295 551 L 1296 547 L 1354 489 Z M 790 411 L 794 410 L 799 405 L 801 405 L 805 402 L 809 401 L 811 399 L 816 399 L 820 396 L 859 396 L 863 399 L 868 399 L 872 402 L 877 402 L 879 404 L 883 405 L 885 407 L 889 408 L 891 410 L 895 411 L 899 414 L 901 414 L 906 419 L 910 420 L 914 423 L 916 423 L 921 428 L 925 429 L 930 434 L 934 435 L 939 440 L 943 441 L 947 444 L 949 444 L 952 447 L 955 447 L 958 444 L 960 444 L 964 441 L 966 441 L 970 438 L 972 438 L 976 435 L 980 434 L 982 432 L 987 432 L 991 429 L 999 429 L 1003 426 L 1011 426 L 1015 423 L 1057 423 L 1061 426 L 1066 426 L 1070 429 L 1075 429 L 1080 434 L 1084 435 L 1094 445 L 1095 449 L 1100 454 L 1100 459 L 1103 463 L 1103 490 L 1101 492 L 1100 496 L 1097 500 L 1097 502 L 1084 515 L 1082 515 L 1078 518 L 1074 519 L 1072 521 L 1064 521 L 1060 524 L 1036 524 L 1032 521 L 1021 521 L 1017 518 L 1012 518 L 1010 516 L 1006 515 L 1004 513 L 1000 512 L 998 510 L 994 509 L 992 507 L 988 506 L 984 503 L 982 503 L 976 497 L 973 497 L 954 516 L 953 520 L 948 525 L 947 529 L 945 531 L 944 535 L 942 537 L 941 541 L 938 545 L 938 550 L 935 554 L 935 559 L 932 563 L 932 568 L 929 572 L 929 583 L 926 587 L 926 612 L 929 616 L 929 624 L 932 628 L 932 630 L 935 634 L 936 638 L 948 650 L 952 651 L 956 654 L 964 654 L 967 657 L 970 657 L 973 654 L 981 654 L 985 651 L 989 650 L 998 641 L 999 639 L 999 634 L 1002 630 L 1002 611 L 999 607 L 999 602 L 998 600 L 992 594 L 988 593 L 984 590 L 980 590 L 976 593 L 964 593 L 963 592 L 963 580 L 985 558 L 987 558 L 991 555 L 995 554 L 997 552 L 1005 552 L 1009 549 L 1036 549 L 1038 551 L 1042 552 L 1044 554 L 1048 555 L 1052 558 L 1054 558 L 1061 565 L 1062 569 L 1067 574 L 1067 576 L 1070 580 L 1070 588 L 1073 592 L 1073 634 L 1070 638 L 1070 649 L 1067 653 L 1067 658 L 1064 662 L 1064 667 L 1061 671 L 1061 676 L 1059 678 L 1058 682 L 1056 684 L 1055 688 L 1052 692 L 1052 694 L 1047 699 L 1046 703 L 1024 725 L 1020 726 L 1015 731 L 1013 731 L 1009 734 L 1007 734 L 1003 737 L 999 738 L 997 740 L 992 740 L 988 743 L 974 743 L 970 746 L 943 746 L 939 743 L 928 743 L 924 740 L 916 740 L 914 738 L 910 737 L 906 734 L 904 734 L 882 712 L 881 708 L 876 703 L 876 701 L 873 697 L 872 693 L 870 691 L 870 686 L 867 682 L 866 678 L 864 676 L 864 668 L 861 664 L 861 656 L 858 652 L 858 638 L 855 634 L 855 601 L 858 597 L 858 583 L 861 579 L 861 571 L 864 567 L 864 562 L 866 560 L 867 556 L 870 552 L 870 547 L 872 545 L 873 541 L 875 539 L 876 535 L 879 531 L 879 529 L 884 524 L 885 520 L 888 516 L 888 514 L 893 509 L 894 505 L 902 497 L 903 493 L 911 485 L 912 481 L 917 476 L 917 474 L 914 471 L 910 470 L 906 467 L 901 467 L 897 464 L 863 464 L 859 467 L 854 467 L 852 468 L 843 477 L 842 481 L 839 485 L 839 501 L 846 509 L 850 510 L 853 513 L 856 513 L 859 510 L 865 510 L 866 511 L 866 520 L 850 536 L 848 536 L 844 539 L 840 540 L 838 542 L 805 542 L 801 539 L 796 539 L 794 537 L 790 536 L 771 517 L 771 515 L 768 511 L 767 507 L 765 505 L 765 500 L 762 496 L 762 482 L 759 478 L 759 475 L 762 471 L 762 454 L 765 450 L 765 445 L 767 443 L 768 439 L 771 435 L 771 433 L 776 428 L 777 424 Z M 227 389 L 227 394 L 229 396 L 241 396 L 243 394 L 243 388 L 246 384 L 246 379 L 249 375 L 249 370 L 251 368 L 252 364 L 255 360 L 255 355 L 257 353 L 258 349 L 261 345 L 261 340 L 263 338 L 264 334 L 266 332 L 267 328 L 269 326 L 270 322 L 272 320 L 273 316 L 275 314 L 276 310 L 278 308 L 279 304 L 282 300 L 282 298 L 287 293 L 288 289 L 290 287 L 291 283 L 294 279 L 294 277 L 299 272 L 300 268 L 305 263 L 306 259 L 311 254 L 312 250 L 317 245 L 318 241 L 326 233 L 327 229 L 338 218 L 339 214 L 359 194 L 360 190 L 391 159 L 395 158 L 412 141 L 416 140 L 427 129 L 431 128 L 439 120 L 443 119 L 448 114 L 452 113 L 457 108 L 461 107 L 466 102 L 470 101 L 475 96 L 477 96 L 481 93 L 485 92 L 490 87 L 492 87 L 496 84 L 498 84 L 502 81 L 504 81 L 508 78 L 510 78 L 514 75 L 516 75 L 520 72 L 522 72 L 526 69 L 528 69 L 532 66 L 534 66 L 538 63 L 542 62 L 544 60 L 549 60 L 553 57 L 557 56 L 559 54 L 564 54 L 568 51 L 573 51 L 577 48 L 581 47 L 583 45 L 588 45 L 592 42 L 600 42 L 604 39 L 609 39 L 613 36 L 621 36 L 625 33 L 633 33 L 637 30 L 648 30 L 652 27 L 663 27 L 667 24 L 684 24 L 688 21 L 711 21 L 715 18 L 799 18 L 803 21 L 826 21 L 830 24 L 840 24 L 842 23 L 845 25 L 841 27 L 840 26 L 820 26 L 816 23 L 746 23 L 742 26 L 713 26 L 709 29 L 692 29 L 688 32 L 677 32 L 673 35 L 662 35 L 658 38 L 650 38 L 646 41 L 638 41 L 634 44 L 626 44 L 622 47 L 617 47 L 613 50 L 608 50 L 604 53 L 599 53 L 595 56 L 590 56 L 586 59 L 582 60 L 580 62 L 575 62 L 571 65 L 567 66 L 565 68 L 560 68 L 556 71 L 554 71 L 550 74 L 548 74 L 544 77 L 542 77 L 538 80 L 536 80 L 532 83 L 530 83 L 526 86 L 524 86 L 520 89 L 518 89 L 514 92 L 512 92 L 508 95 L 504 96 L 499 101 L 497 101 L 493 104 L 489 105 L 484 110 L 480 111 L 475 116 L 471 117 L 466 122 L 462 123 L 457 128 L 453 129 L 445 137 L 441 138 L 430 149 L 426 150 L 406 170 L 402 171 L 372 201 L 371 205 L 351 225 L 350 229 L 339 240 L 338 244 L 330 252 L 329 256 L 324 261 L 323 265 L 318 270 L 317 274 L 312 279 L 311 283 L 306 288 L 305 292 L 302 296 L 302 298 L 297 303 L 296 307 L 294 309 L 293 313 L 291 315 L 290 319 L 288 321 L 287 325 L 285 327 L 284 331 L 282 333 L 281 337 L 279 339 L 278 343 L 276 345 L 275 349 L 273 351 L 272 355 L 269 359 L 269 364 L 267 366 L 266 370 L 264 372 L 263 376 L 260 380 L 260 385 L 257 389 L 257 394 L 255 396 L 255 398 L 256 399 L 259 399 L 261 401 L 265 402 L 267 404 L 271 405 L 273 407 L 277 408 L 279 410 L 283 411 L 285 413 L 289 414 L 291 416 L 293 416 L 297 411 L 297 406 L 300 402 L 300 397 L 303 393 L 303 388 L 305 386 L 306 382 L 309 378 L 309 373 L 311 371 L 312 367 L 314 365 L 315 361 L 317 359 L 318 355 L 320 353 L 321 349 L 323 347 L 324 343 L 326 341 L 327 337 L 329 335 L 330 331 L 332 329 L 333 325 L 336 321 L 336 319 L 341 314 L 342 310 L 345 306 L 345 304 L 350 299 L 351 295 L 356 290 L 357 286 L 362 281 L 363 277 L 371 269 L 372 265 L 380 257 L 381 253 L 398 236 L 399 232 L 427 204 L 431 203 L 451 183 L 455 182 L 466 171 L 470 170 L 475 165 L 479 164 L 487 156 L 491 155 L 496 150 L 498 150 L 502 147 L 506 146 L 511 141 L 513 141 L 517 138 L 519 138 L 523 135 L 527 134 L 532 129 L 534 129 L 538 126 L 540 126 L 544 123 L 546 123 L 550 120 L 554 119 L 556 117 L 561 117 L 565 114 L 567 114 L 571 111 L 575 110 L 577 108 L 582 108 L 586 105 L 591 105 L 595 102 L 599 101 L 601 99 L 606 99 L 610 96 L 618 96 L 622 93 L 627 93 L 631 90 L 639 90 L 643 87 L 651 87 L 655 84 L 666 84 L 670 81 L 684 81 L 688 78 L 708 78 L 712 75 L 808 75 L 812 78 L 825 78 L 827 77 L 830 79 L 827 81 L 825 80 L 784 80 L 782 78 L 780 78 L 778 80 L 731 80 L 727 83 L 707 83 L 703 86 L 689 86 L 685 89 L 674 89 L 670 92 L 662 92 L 658 95 L 650 95 L 646 98 L 641 98 L 637 101 L 629 101 L 625 104 L 620 104 L 616 107 L 612 108 L 610 110 L 605 110 L 601 113 L 596 113 L 592 116 L 590 116 L 586 119 L 582 120 L 580 122 L 575 122 L 571 125 L 569 125 L 565 128 L 563 128 L 559 131 L 557 131 L 553 134 L 551 134 L 547 137 L 545 137 L 541 140 L 537 141 L 532 146 L 530 146 L 526 149 L 522 150 L 517 155 L 515 155 L 511 158 L 507 159 L 502 164 L 498 165 L 490 173 L 486 174 L 481 179 L 477 180 L 466 191 L 462 192 L 445 209 L 441 210 L 411 240 L 410 244 L 393 261 L 392 265 L 381 276 L 380 280 L 372 288 L 371 292 L 366 297 L 365 301 L 360 306 L 359 310 L 354 315 L 353 319 L 350 323 L 350 325 L 345 330 L 344 334 L 342 336 L 341 340 L 339 342 L 338 346 L 336 348 L 335 352 L 333 354 L 332 358 L 330 360 L 329 364 L 327 366 L 326 370 L 324 372 L 323 376 L 321 378 L 320 382 L 317 386 L 317 391 L 315 393 L 314 397 L 311 401 L 311 406 L 308 410 L 308 415 L 305 419 L 305 424 L 303 426 L 303 428 L 311 436 L 312 440 L 329 457 L 329 459 L 331 462 L 334 462 L 336 460 L 336 454 L 339 450 L 339 442 L 342 438 L 342 433 L 345 429 L 345 424 L 348 420 L 348 415 L 351 411 L 351 406 L 353 404 L 354 400 L 357 396 L 357 391 L 359 389 L 360 385 L 362 383 L 363 379 L 365 377 L 366 373 L 368 371 L 369 367 L 371 365 L 372 361 L 374 359 L 375 355 L 377 353 L 378 349 L 381 345 L 381 343 L 386 338 L 387 334 L 390 330 L 390 328 L 395 323 L 396 319 L 401 314 L 402 310 L 410 302 L 411 298 L 419 290 L 420 286 L 440 266 L 441 262 L 463 240 L 467 239 L 484 222 L 488 221 L 499 210 L 503 209 L 508 204 L 512 203 L 517 198 L 521 197 L 526 192 L 530 191 L 535 186 L 537 186 L 541 183 L 545 182 L 550 177 L 552 177 L 556 174 L 558 174 L 562 171 L 564 171 L 568 168 L 570 168 L 574 165 L 578 164 L 580 162 L 585 162 L 589 159 L 591 159 L 595 156 L 599 155 L 601 153 L 606 153 L 610 150 L 615 150 L 619 147 L 624 147 L 628 144 L 633 144 L 637 141 L 642 141 L 646 138 L 654 138 L 658 135 L 666 135 L 670 132 L 684 132 L 688 129 L 702 129 L 706 126 L 736 126 L 739 123 L 784 123 L 788 126 L 810 126 L 812 125 L 815 127 L 812 129 L 810 128 L 742 128 L 739 131 L 719 131 L 715 134 L 701 134 L 697 137 L 686 137 L 682 140 L 674 140 L 670 143 L 662 143 L 658 146 L 650 146 L 646 149 L 641 149 L 637 152 L 632 152 L 628 155 L 624 156 L 622 158 L 617 158 L 613 161 L 608 161 L 604 164 L 602 164 L 598 167 L 596 167 L 592 170 L 590 170 L 586 173 L 584 173 L 580 176 L 578 176 L 574 179 L 572 179 L 568 182 L 566 182 L 562 185 L 558 186 L 553 191 L 551 191 L 547 194 L 543 195 L 538 200 L 534 201 L 529 206 L 525 207 L 520 212 L 516 213 L 508 221 L 504 222 L 496 230 L 492 231 L 432 291 L 431 295 L 420 306 L 419 310 L 414 315 L 413 319 L 405 327 L 404 331 L 401 335 L 401 337 L 396 342 L 395 346 L 390 351 L 389 355 L 387 357 L 386 361 L 384 363 L 383 367 L 381 369 L 380 373 L 378 375 L 377 379 L 375 381 L 374 385 L 372 387 L 371 391 L 369 393 L 368 397 L 366 399 L 365 403 L 362 407 L 362 412 L 360 414 L 359 418 L 356 422 L 356 427 L 353 431 L 353 436 L 350 440 L 350 445 L 347 449 L 347 454 L 344 458 L 344 466 L 341 470 L 341 478 L 338 482 L 338 486 L 341 490 L 341 517 L 343 519 L 346 519 L 349 516 L 364 516 L 366 514 L 366 502 L 369 498 L 369 484 L 372 480 L 372 472 L 375 468 L 375 460 L 378 456 L 378 451 L 381 447 L 381 439 L 383 437 L 384 433 L 387 429 L 387 424 L 390 420 L 390 415 L 392 413 L 393 409 L 395 407 L 396 403 L 399 399 L 399 394 L 401 392 L 402 388 L 404 386 L 405 382 L 408 378 L 408 376 L 413 371 L 414 367 L 416 365 L 417 361 L 420 357 L 420 355 L 425 350 L 426 346 L 431 341 L 432 337 L 440 329 L 441 325 L 449 317 L 450 313 L 467 296 L 468 292 L 490 270 L 494 269 L 511 252 L 515 251 L 526 240 L 530 239 L 535 234 L 539 233 L 544 228 L 548 227 L 553 222 L 555 222 L 559 219 L 563 218 L 568 213 L 570 213 L 574 210 L 576 210 L 580 207 L 582 207 L 586 204 L 588 204 L 592 201 L 596 200 L 598 198 L 603 198 L 607 195 L 609 195 L 613 192 L 617 191 L 619 189 L 624 189 L 628 186 L 633 186 L 637 183 L 642 183 L 646 180 L 651 180 L 655 177 L 663 177 L 667 174 L 678 174 L 682 171 L 693 171 L 697 168 L 715 168 L 718 165 L 804 165 L 806 164 L 809 166 L 806 168 L 804 167 L 746 167 L 742 170 L 721 170 L 718 173 L 704 173 L 700 176 L 689 176 L 685 179 L 677 179 L 673 182 L 668 182 L 664 185 L 656 185 L 652 188 L 648 189 L 646 191 L 641 191 L 637 194 L 632 194 L 628 197 L 624 198 L 622 200 L 617 200 L 613 203 L 611 203 L 607 206 L 605 206 L 601 209 L 599 209 L 595 212 L 593 212 L 589 215 L 587 215 L 583 218 L 581 218 L 577 221 L 573 222 L 568 227 L 564 228 L 559 233 L 555 234 L 550 239 L 546 240 L 541 245 L 537 246 L 529 254 L 525 255 L 514 266 L 510 267 L 468 309 L 467 313 L 456 324 L 455 328 L 447 336 L 446 340 L 438 348 L 437 352 L 432 357 L 431 361 L 428 365 L 428 367 L 423 372 L 422 376 L 420 378 L 419 382 L 417 384 L 416 388 L 414 390 L 413 394 L 411 396 L 410 400 L 408 402 L 407 406 L 405 408 L 404 412 L 402 414 L 401 418 L 398 422 L 398 427 L 396 429 L 395 433 L 392 437 L 392 442 L 389 446 L 389 451 L 386 455 L 386 460 L 383 464 L 383 469 L 380 473 L 380 481 L 377 485 L 377 496 L 374 500 L 374 511 L 372 513 L 372 515 L 373 516 L 379 516 L 383 519 L 388 519 L 392 522 L 397 522 L 401 525 L 406 525 L 408 523 L 408 511 L 411 507 L 411 496 L 414 492 L 414 481 L 417 477 L 417 472 L 420 468 L 420 460 L 423 456 L 423 451 L 426 447 L 426 442 L 428 440 L 429 436 L 432 432 L 432 427 L 434 425 L 435 421 L 437 419 L 438 415 L 440 413 L 441 409 L 443 407 L 444 403 L 446 401 L 447 397 L 449 395 L 450 391 L 453 387 L 453 385 L 458 380 L 459 376 L 462 372 L 462 370 L 470 362 L 471 358 L 476 353 L 477 349 L 488 338 L 489 334 L 532 291 L 536 290 L 547 279 L 551 278 L 559 270 L 563 269 L 568 264 L 572 263 L 577 258 L 579 258 L 583 255 L 585 255 L 589 252 L 591 252 L 595 249 L 599 248 L 604 243 L 609 243 L 613 240 L 615 240 L 619 237 L 621 237 L 625 234 L 629 233 L 631 231 L 636 231 L 640 228 L 645 228 L 649 225 L 654 225 L 658 222 L 663 222 L 667 219 L 676 219 L 679 216 L 688 216 L 691 213 L 702 213 L 706 210 L 723 210 L 727 207 L 798 207 L 800 206 L 803 208 L 800 210 L 798 209 L 746 209 L 742 212 L 725 212 L 721 215 L 707 215 L 703 218 L 694 218 L 691 221 L 682 221 L 679 224 L 674 224 L 670 227 L 665 227 L 661 230 L 656 230 L 652 233 L 647 233 L 643 236 L 639 237 L 637 239 L 632 239 L 628 242 L 626 242 L 622 245 L 620 245 L 616 248 L 614 248 L 610 251 L 608 251 L 604 254 L 600 255 L 595 260 L 593 260 L 589 263 L 585 264 L 580 269 L 576 270 L 571 275 L 567 276 L 562 281 L 558 282 L 547 293 L 543 294 L 495 342 L 494 346 L 483 357 L 482 361 L 477 366 L 476 370 L 471 375 L 470 379 L 465 384 L 464 388 L 459 393 L 458 397 L 456 399 L 455 403 L 453 405 L 452 409 L 450 411 L 449 415 L 447 417 L 446 421 L 444 423 L 443 427 L 441 429 L 440 433 L 437 437 L 437 442 L 435 444 L 434 448 L 431 452 L 431 457 L 428 461 L 428 466 L 425 470 L 425 475 L 422 479 L 422 487 L 419 491 L 419 499 L 416 503 L 416 514 L 413 518 L 413 532 L 416 534 L 418 534 L 422 538 L 423 542 L 427 546 L 430 546 L 443 533 L 444 531 L 444 526 L 447 522 L 447 508 L 450 504 L 450 493 L 453 490 L 453 481 L 456 478 L 456 472 L 459 469 L 459 463 L 462 460 L 462 454 L 464 452 L 465 448 L 468 445 L 468 439 L 470 437 L 471 433 L 473 431 L 474 427 L 476 425 L 477 421 L 479 419 L 480 415 L 482 413 L 483 409 L 486 405 L 486 403 L 491 398 L 492 394 L 497 389 L 498 385 L 503 380 L 504 376 L 515 365 L 516 361 L 562 315 L 566 314 L 574 306 L 578 305 L 583 300 L 587 299 L 592 294 L 596 293 L 601 288 L 603 288 L 607 285 L 609 285 L 613 282 L 615 282 L 619 279 L 621 279 L 625 276 L 627 276 L 631 273 L 633 273 L 637 270 L 641 269 L 643 267 L 649 267 L 652 264 L 654 264 L 658 261 L 664 261 L 667 258 L 673 258 L 676 255 L 685 255 L 688 252 L 696 252 L 700 249 L 714 249 L 718 246 L 738 246 L 742 243 L 786 243 L 788 242 L 791 244 L 788 246 L 786 245 L 755 245 L 751 248 L 731 248 L 727 251 L 716 251 L 712 254 L 701 254 L 697 257 L 691 257 L 688 260 L 679 260 L 676 263 L 670 263 L 667 266 L 665 266 L 661 269 L 655 269 L 652 272 L 650 272 L 646 275 L 640 275 L 637 278 L 635 278 L 631 281 L 629 281 L 625 284 L 621 285 L 616 290 L 614 290 L 610 293 L 606 294 L 601 299 L 597 300 L 592 305 L 588 306 L 583 311 L 579 312 L 568 323 L 564 324 L 522 366 L 521 370 L 513 378 L 512 382 L 504 390 L 503 394 L 498 399 L 497 403 L 494 407 L 494 409 L 489 414 L 488 418 L 486 420 L 485 424 L 483 426 L 482 430 L 480 432 L 479 436 L 477 438 L 476 442 L 473 446 L 473 448 L 470 451 L 470 457 L 468 459 L 467 463 L 464 466 L 464 472 L 461 475 L 461 481 L 458 484 L 458 493 L 455 496 L 455 505 L 452 509 L 452 520 L 450 522 L 449 526 L 451 528 L 454 528 L 457 525 L 459 525 L 463 522 L 468 522 L 472 519 L 481 519 L 483 517 L 483 511 L 486 507 L 486 499 L 489 495 L 489 487 L 492 484 L 492 478 L 495 475 L 495 469 L 497 467 L 498 463 L 501 460 L 501 454 L 503 452 L 504 448 L 506 446 L 507 442 L 509 440 L 510 436 L 513 432 L 513 430 L 518 425 L 519 421 L 522 417 L 522 415 L 527 410 L 528 406 L 533 401 L 534 397 L 545 386 L 546 382 L 580 348 L 584 347 L 595 336 L 599 335 L 604 330 L 608 329 L 613 324 L 617 323 L 622 318 L 624 318 L 628 315 L 630 315 L 634 312 L 636 312 L 640 309 L 642 309 L 646 306 L 650 305 L 652 303 L 657 303 L 661 300 L 665 299 L 667 297 L 672 297 L 676 294 L 681 294 L 685 291 L 690 291 L 694 288 L 705 288 L 709 285 L 720 285 L 724 282 L 747 282 L 753 278 L 754 279 L 783 279 L 785 278 L 788 280 L 785 282 L 783 281 L 755 281 L 749 285 L 748 284 L 731 284 L 727 287 L 716 287 L 712 290 L 704 290 L 700 293 L 695 293 L 691 296 L 686 296 L 682 299 L 677 299 L 673 302 L 668 302 L 664 305 L 662 305 L 658 308 L 656 308 L 652 311 L 650 311 L 646 314 L 644 314 L 640 317 L 638 317 L 634 320 L 630 321 L 625 326 L 621 327 L 616 332 L 612 333 L 607 338 L 603 339 L 595 347 L 591 348 L 546 393 L 545 397 L 537 405 L 536 409 L 531 414 L 530 418 L 525 423 L 524 427 L 521 431 L 521 433 L 516 438 L 515 442 L 513 444 L 512 448 L 509 452 L 509 454 L 506 457 L 506 463 L 504 465 L 503 469 L 500 472 L 500 478 L 497 481 L 497 487 L 494 490 L 494 496 L 491 500 L 491 505 L 488 509 L 488 517 L 490 519 L 499 519 L 503 522 L 507 522 L 509 521 L 510 519 L 510 514 L 513 510 L 513 502 L 516 498 L 516 490 L 518 488 L 519 484 L 522 480 L 522 475 L 525 472 L 525 466 L 527 464 L 528 460 L 530 458 L 531 454 L 533 452 L 534 448 L 537 444 L 537 442 L 542 437 L 543 433 L 546 429 L 546 427 L 551 422 L 552 418 L 560 410 L 561 406 L 604 363 L 608 362 L 616 354 L 620 353 L 625 348 L 629 347 L 634 342 L 636 342 L 640 339 L 642 339 L 646 336 L 648 336 L 652 333 L 654 333 L 658 330 L 660 330 L 664 327 L 668 326 L 670 324 L 675 324 L 679 321 L 684 321 L 688 318 L 693 318 L 697 315 L 705 315 L 709 312 L 717 312 L 721 309 L 738 309 L 744 305 L 745 306 L 792 306 L 794 305 L 797 307 L 794 309 L 792 308 L 746 308 L 740 312 L 739 311 L 728 311 L 724 314 L 716 314 L 712 317 L 704 317 L 700 320 L 695 320 L 691 323 L 686 323 L 682 326 L 678 327 L 676 329 L 671 329 L 667 332 L 665 332 L 661 335 L 659 335 L 655 338 L 651 339 L 646 344 L 644 344 L 640 347 L 636 348 L 631 353 L 627 354 L 622 359 L 618 360 L 607 371 L 603 372 L 573 402 L 572 406 L 561 417 L 560 421 L 555 426 L 554 430 L 549 435 L 548 439 L 545 443 L 545 445 L 540 450 L 539 454 L 537 456 L 536 460 L 533 464 L 533 466 L 530 469 L 530 475 L 528 477 L 527 481 L 524 485 L 524 490 L 521 493 L 521 499 L 518 503 L 518 508 L 515 512 L 515 520 L 512 524 L 512 528 L 513 530 L 518 534 L 522 534 L 529 528 L 533 527 L 536 524 L 537 520 L 540 516 L 540 508 L 543 504 L 543 499 L 546 495 L 546 490 L 548 488 L 549 484 L 552 480 L 552 475 L 554 473 L 555 469 L 557 467 L 558 463 L 561 459 L 561 457 L 566 452 L 567 448 L 570 444 L 570 442 L 575 437 L 576 433 L 587 422 L 588 418 L 619 387 L 623 386 L 631 378 L 635 377 L 640 372 L 644 371 L 649 366 L 651 366 L 655 363 L 657 363 L 661 360 L 663 360 L 667 357 L 669 357 L 673 354 L 677 353 L 679 351 L 684 351 L 688 348 L 692 347 L 694 345 L 702 345 L 706 342 L 711 342 L 717 338 L 718 339 L 727 339 L 728 340 L 725 342 L 723 341 L 719 341 L 715 344 L 710 344 L 706 347 L 701 347 L 697 350 L 692 350 L 688 353 L 686 353 L 682 356 L 678 357 L 676 359 L 671 359 L 664 365 L 662 365 L 658 368 L 656 368 L 652 371 L 648 372 L 643 377 L 639 378 L 631 386 L 627 387 L 588 426 L 587 430 L 579 438 L 578 442 L 573 447 L 572 451 L 567 456 L 566 460 L 564 462 L 563 466 L 561 468 L 560 472 L 558 474 L 557 478 L 555 480 L 554 484 L 551 488 L 551 493 L 548 497 L 548 502 L 545 506 L 545 511 L 542 515 L 542 519 L 544 522 L 547 522 L 550 519 L 558 519 L 562 516 L 566 515 L 567 513 L 567 508 L 570 504 L 570 499 L 572 497 L 573 493 L 576 489 L 576 484 L 578 482 L 579 478 L 582 474 L 582 472 L 587 467 L 588 463 L 591 459 L 591 457 L 596 452 L 597 448 L 608 437 L 609 433 L 634 408 L 638 407 L 646 399 L 650 398 L 655 393 L 659 392 L 664 387 L 666 387 L 670 384 L 672 384 L 676 381 L 678 381 L 682 378 L 686 377 L 688 375 L 693 375 L 699 371 L 704 373 L 701 375 L 699 375 L 697 377 L 692 377 L 688 380 L 686 380 L 682 383 L 680 383 L 676 386 L 672 387 L 667 392 L 665 392 L 661 395 L 657 396 L 649 404 L 645 405 L 631 419 L 627 420 L 618 429 L 617 433 L 603 447 L 602 451 L 597 456 L 596 460 L 591 465 L 590 469 L 588 471 L 587 475 L 585 477 L 584 481 L 582 483 L 581 487 L 579 489 L 578 493 L 576 495 L 575 499 L 572 503 L 572 508 L 569 512 L 570 515 L 572 516 L 577 516 L 581 519 L 586 519 L 592 525 L 595 525 L 597 523 L 597 517 L 599 515 L 600 511 L 602 509 L 603 505 L 605 503 L 606 499 L 608 497 L 609 493 L 611 491 L 612 487 L 615 483 L 615 481 L 620 476 L 621 472 L 626 467 L 626 465 L 621 460 L 621 445 L 623 443 L 624 439 L 640 423 L 644 422 L 649 417 L 651 417 L 655 414 L 660 414 L 664 411 L 672 411 L 676 408 L 688 408 L 691 411 L 694 411 L 697 408 L 699 408 L 703 405 L 708 405 L 712 402 L 716 401 L 718 399 L 723 399 L 727 396 L 735 396 L 739 393 L 753 393 L 757 390 L 783 390 L 787 387 L 789 387 L 793 384 L 797 383 L 799 381 L 804 381 L 808 378 L 813 378 L 817 375 L 825 375 L 829 372 L 856 372 L 860 375 L 871 375 L 875 378 L 880 378 L 884 381 L 889 381 L 891 383 L 895 384 L 897 386 L 901 387 L 903 389 L 907 390 L 911 393 L 913 393 L 918 398 L 922 399 L 927 404 L 931 405 L 939 413 L 943 414 L 950 420 L 954 420 L 958 417 L 963 417 L 967 414 L 975 414 L 979 411 L 987 411 L 991 408 L 999 408 L 1003 405 L 1014 405 L 1018 402 L 1063 402 L 1067 405 L 1072 405 L 1076 408 L 1081 408 L 1083 410 L 1087 411 L 1091 414 L 1093 414 L 1098 419 L 1102 420 L 1112 430 L 1112 432 L 1115 436 L 1115 438 L 1118 442 L 1119 446 L 1121 448 L 1121 456 L 1127 463 L 1127 465 L 1130 469 L 1130 474 L 1133 478 L 1133 483 L 1136 487 L 1136 520 L 1138 522 L 1165 522 L 1167 524 L 1171 525 L 1175 528 L 1177 528 L 1180 534 L 1185 534 L 1189 531 L 1193 530 L 1195 528 L 1200 528 L 1204 525 L 1208 524 L 1210 522 L 1224 522 L 1228 519 L 1237 519 L 1241 522 L 1246 522 L 1248 524 L 1252 525 L 1256 528 L 1258 528 L 1262 532 L 1262 534 L 1265 538 L 1266 542 L 1268 544 L 1268 547 L 1269 548 L 1271 548 L 1272 547 L 1272 544 L 1277 539 L 1278 535 L 1286 527 L 1287 523 L 1327 483 L 1331 482 L 1339 474 L 1343 473 L 1348 468 L 1350 468 L 1353 466 L 1353 458 L 1350 454 L 1350 446 L 1347 442 L 1347 434 L 1344 430 L 1344 422 L 1341 418 L 1341 413 L 1338 409 L 1338 404 L 1335 400 L 1335 395 L 1332 391 L 1332 386 L 1329 382 L 1329 377 L 1326 373 L 1325 369 L 1323 367 L 1323 362 L 1320 358 L 1320 356 L 1317 352 L 1316 348 L 1314 346 L 1314 341 L 1311 337 L 1311 335 L 1308 331 L 1308 329 L 1305 325 L 1305 323 L 1302 319 L 1302 317 L 1299 313 L 1299 311 L 1296 307 L 1295 303 L 1290 298 L 1290 296 L 1287 292 L 1287 290 L 1284 286 L 1283 282 L 1278 277 L 1277 273 L 1272 268 L 1271 264 L 1266 259 L 1265 255 L 1260 250 L 1259 246 L 1254 241 L 1253 237 L 1245 229 L 1244 225 L 1233 214 L 1232 210 L 1215 193 L 1214 189 L 1175 150 L 1171 149 L 1154 132 L 1150 131 L 1139 120 L 1135 119 L 1127 111 L 1123 110 L 1115 102 L 1111 101 L 1106 96 L 1102 95 L 1097 90 L 1093 89 L 1089 86 L 1087 86 L 1082 81 L 1078 80 L 1074 77 L 1072 77 L 1067 72 L 1063 71 L 1061 69 L 1057 68 L 1055 66 L 1051 65 L 1049 63 L 1045 62 L 1043 60 L 1039 59 L 1037 57 L 1033 56 L 1031 54 L 1027 53 L 1025 51 L 1021 50 L 1017 47 L 1012 47 L 1010 45 L 1006 44 L 1004 42 L 1000 41 L 996 38 L 991 38 L 989 36 L 985 35 L 981 32 L 976 32 L 972 29 L 967 29 L 963 26 L 958 26 L 954 23 L 946 23 L 942 20 L 937 20 L 933 17 L 925 17 L 921 14 L 913 14 L 909 11 L 898 11 L 894 8 L 883 8 L 879 5 L 865 5 L 861 2 L 841 2 L 840 0 L 722 0 L 721 2 L 698 2 L 694 5 L 680 5 L 676 8 L 665 8 L 661 11 L 650 11 L 646 14 L 638 14 L 634 17 L 626 17 L 622 20 L 617 20 L 613 23 L 605 23 L 601 26 L 596 26 L 592 29 L 587 29 L 583 32 L 579 33 L 577 35 L 572 35 L 568 38 L 563 38 L 559 41 L 557 41 L 553 44 L 549 45 L 547 47 L 542 47 L 538 50 L 536 50 L 532 53 L 530 53 L 526 56 L 524 56 L 520 59 L 518 59 L 514 62 L 512 62 L 508 65 L 506 65 L 502 68 L 500 68 L 496 71 L 492 72 L 487 77 L 485 77 L 481 80 L 477 81 L 472 86 L 468 87 L 463 92 L 461 92 L 457 95 L 453 96 L 445 104 L 441 105 L 436 110 L 432 111 L 424 119 L 420 120 L 409 131 L 405 132 L 385 152 L 381 153 L 351 183 L 350 187 L 330 207 L 329 211 L 318 222 L 317 226 L 309 234 L 308 238 L 300 246 L 299 250 L 294 255 L 293 259 L 288 264 L 287 268 L 282 273 L 281 277 L 278 281 L 278 283 L 273 288 L 272 292 L 270 294 L 269 298 L 267 300 L 266 304 L 264 306 L 263 310 L 261 312 L 260 316 L 258 318 L 257 322 L 255 324 L 254 328 L 252 330 L 251 334 L 249 336 L 248 340 L 246 342 L 245 346 L 243 348 L 242 352 L 239 356 L 239 361 L 237 363 L 236 367 L 233 371 L 233 376 L 230 380 L 230 385 Z M 705 370 L 708 368 L 713 370 L 710 372 Z M 714 367 L 717 365 L 719 366 L 724 366 L 725 367 L 722 369 L 720 368 L 715 368 Z M 726 364 L 729 362 L 731 363 L 734 362 L 737 364 L 734 366 L 732 365 L 727 365 Z M 741 361 L 744 359 L 746 360 L 750 360 L 752 359 L 755 361 L 752 363 L 750 362 L 746 362 L 744 363 Z M 729 337 L 732 335 L 734 336 L 741 336 L 743 335 L 746 337 L 743 339 L 741 338 L 730 338 Z M 753 334 L 756 332 L 758 333 L 783 333 L 785 332 L 788 334 L 785 336 L 783 335 L 758 335 L 756 336 Z M 810 247 L 812 245 L 815 247 L 813 249 Z M 819 211 L 821 209 L 824 211 L 822 213 Z M 819 169 L 822 167 L 824 168 L 827 167 L 830 169 L 827 171 L 825 170 L 822 171 Z M 822 130 L 825 128 L 827 129 L 831 129 L 833 128 L 836 130 L 833 132 L 831 131 L 827 131 L 825 132 Z M 858 85 L 860 83 L 863 85 L 861 87 Z M 837 82 L 840 80 L 842 81 L 845 80 L 848 82 L 845 84 L 843 83 L 840 84 Z M 870 31 L 872 29 L 875 31 L 873 33 Z M 852 28 L 855 26 L 857 27 L 860 26 L 863 28 L 860 30 L 858 29 L 855 30 Z" fill="black" fill-rule="evenodd" stroke="none" /></svg>